<mxfile>
    <diagram id="nyOuXupL-N1avTP0qkD6" name="Page-1">
        <mxGraphModel dx="2578" dy="1028" grid="1" gridSize="10" guides="1" tooltips="1" connect="1" arrows="1" fold="1" page="1" pageScale="1" pageWidth="400" pageHeight="400" background="none" math="0" shadow="1">
            <root>
                <mxCell id="0"/>
                <mxCell id="1" parent="0"/>
                <mxCell id="T-B9nDz0MbjNUT2mxpqN-2" value="" style="verticalLabelPosition=bottom;align=center;html=1;verticalAlign=top;pointerEvents=1;dashed=0;shape=mxgraph.pid2valves.valve;valveType=gate;defState=closed;strokeWidth=4;fillColor=none;fontSize=33;rotation=-95;strokeColor=#0000FF;rounded=1;" parent="1" vertex="1">
                    <mxGeometry x="-440.5005561735262" y="246.66666666666663" width="42.26918798665183" height="21.38364779874214" as="geometry"/>
                </mxCell>
                <mxCell id="T-B9nDz0MbjNUT2mxpqN-3" value="" style="verticalLabelPosition=bottom;align=center;outlineConnect=0;dashed=0;html=1;verticalAlign=top;shape=mxgraph.pid.flow_sensors.rotameter;strokeWidth=6;fillColor=none;fontSize=33;rotation=-90;strokeColor=#009900;rounded=1;" parent="1" vertex="1">
                    <mxGeometry x="-254.51612903225816" y="1220.9484276729559" width="29.588431590656285" height="17.919496855345912" as="geometry"/>
                </mxCell>
                <mxCell id="T-B9nDz0MbjNUT2mxpqN-4" value="" style="verticalLabelPosition=bottom;align=center;html=1;verticalAlign=top;pointerEvents=1;dashed=0;shape=mxgraph.pid2valves.valve;valveType=gate;defState=closed;strokeWidth=4;fillColor=none;fontSize=33;rotation=0;strokeColor=#0000FF;rounded=1;" parent="1" vertex="1">
                    <mxGeometry x="66.7296996662958" y="1129.811320754717" width="42.26918798665183" height="21.38364779874214" as="geometry"/>
                </mxCell>
                <mxCell id="T-B9nDz0MbjNUT2mxpqN-5" value="" style="verticalLabelPosition=bottom;align=center;html=1;verticalAlign=top;pointerEvents=1;dashed=0;shape=mxgraph.pid2valves.valve;valveType=gate;defState=closed;strokeWidth=4;fillColor=none;fontSize=33;rotation=75;strokeColor=#0000FF;rounded=1;" parent="1" vertex="1">
                    <mxGeometry x="49.82202447163513" y="768.4276729559748" width="42.26918798665183" height="21.38364779874214" as="geometry"/>
                </mxCell>
                <mxCell id="T-B9nDz0MbjNUT2mxpqN-6" value="" style="verticalLabelPosition=bottom;align=center;html=1;verticalAlign=top;pointerEvents=1;dashed=0;shape=mxgraph.pid2valves.valve;valveType=gate;defState=closed;strokeWidth=4;fillColor=none;fontSize=33;rotation=0;strokeColor=#0000FF;rounded=1;" parent="1" vertex="1">
                    <mxGeometry x="472.51390433815345" y="875.3459119496855" width="42.26918798665183" height="21.38364779874214" as="geometry"/>
                </mxCell>
                <mxCell id="T-B9nDz0MbjNUT2mxpqN-7" value="" style="verticalLabelPosition=bottom;align=center;outlineConnect=0;dashed=0;html=1;verticalAlign=top;shape=mxgraph.pid.flow_sensors.rotameter;strokeWidth=6;fillColor=none;fontSize=33;rotation=-90;fontColor=#009900;strokeColor=#009900;rounded=1;" parent="1" vertex="1">
                    <mxGeometry x="2467.61957730812" y="2050.633962264151" width="29.588431590656285" height="17.919496855345912" as="geometry"/>
                </mxCell>
                <mxCell id="T-B9nDz0MbjNUT2mxpqN-8" value="" style="verticalLabelPosition=bottom;align=center;outlineConnect=0;dashed=0;html=1;verticalAlign=top;shape=mxgraph.pid.flow_sensors.rotameter;strokeWidth=6;fillColor=none;fontSize=33;rotation=-90;strokeColor=#009900;rounded=1;" parent="1" vertex="1">
                    <mxGeometry x="-250.28921023359294" y="1842.4" width="29.588431590656285" height="17.919496855345912" as="geometry"/>
                </mxCell>
                <mxCell id="T-B9nDz0MbjNUT2mxpqN-9" value="" style="endArrow=none;html=1;strokeWidth=4;fontSize=33;" parent="1" edge="1">
                    <mxGeometry x="-990" y="20" width="50" height="50" as="geometry">
                        <mxPoint x="-801.9021134593993" y="105.53459119496856" as="sourcePoint"/>
                        <mxPoint x="-696.2291434927697" y="2703.6477987421385" as="targetPoint"/>
                        <Array as="points">
                            <mxPoint x="-634.9388209121246" y="105.53459119496856"/>
                            <mxPoint x="-508.1312569521691" y="126.9182389937107"/>
                            <mxPoint x="-381.32369299221364" y="447.67295597484275"/>
                            <mxPoint x="-355.9621802002225" y="511.82389937106916"/>
                            <mxPoint x="45.595105672969794" y="704.2767295597484"/>
                            <mxPoint x="66.7296996662958" y="725.6603773584906"/>
                            <mxPoint x="108.99888765294759" y="811.1949685534591"/>
                            <mxPoint x="108.99888765294759" y="832.5786163522013"/>
                            <mxPoint x="87.86429365962181" y="960.8805031446541"/>
                            <mxPoint x="87.86429365962181" y="1196.1006289308175"/>
                            <mxPoint x="212.55839822024473" y="1238.867924528302"/>
                            <mxPoint x="191.42380422691872" y="1303.0188679245282"/>
                            <mxPoint x="128.02002224694093" y="1345.7861635220127"/>
                            <mxPoint x="108.99888765294759" y="1388.553459119497"/>
                            <mxPoint x="85.75083426028914" y="1452.7044025157234"/>
                            <mxPoint x="-62.19132369299223" y="1687.9245283018868"/>
                            <mxPoint x="-83.32591768631823" y="1730.691823899371"/>
                            <mxPoint x="-167.8642936596218" y="1752.0754716981132"/>
                            <mxPoint x="-273.5372636262514" y="1730.691823899371"/>
                            <mxPoint x="-355.9621802002225" y="1709.308176100629"/>
                            <mxPoint x="-442.61401557285876" y="1880.377358490566"/>
                            <mxPoint x="-484.8832035595106" y="2072.830188679245"/>
                            <mxPoint x="-632.825361512792" y="2051.446540880503"/>
                            <mxPoint x="-611.6907675194661" y="2115.5974842767296"/>
                            <mxPoint x="-569.4215795328143" y="2136.9811320754716"/>
                            <mxPoint x="-698.3426028921024" y="2286.6666666666665"/>
                            <mxPoint x="-569.4215795328143" y="2329.433962264151"/>
                            <mxPoint x="-759.6329254727475" y="2692.9559748427673"/>
                        </Array>
                    </mxGeometry>
                </mxCell>
                <mxCell id="T-B9nDz0MbjNUT2mxpqN-12" value="93" style="text;html=1;strokeColor=none;fillColor=none;align=center;verticalAlign=middle;whiteSpace=wrap;fontSize=33;fontStyle=1;strokeWidth=4;rounded=1;" parent="1" vertex="1">
                    <mxGeometry x="-765.9733036707453" y="116.22641509433961" width="84.53837597330366" height="42.76729559748428" as="geometry"/>
                </mxCell>
                <mxCell id="T-B9nDz0MbjNUT2mxpqN-13" value="97" style="text;html=1;strokeColor=none;fillColor=none;align=center;verticalAlign=middle;whiteSpace=wrap;fontSize=33;fontStyle=1;strokeWidth=4;rounded=1;" parent="1" vertex="1">
                    <mxGeometry x="-516.5850945494994" y="116.22641509433961" width="84.53837597330366" height="42.76729559748428" as="geometry"/>
                </mxCell>
                <mxCell id="T-B9nDz0MbjNUT2mxpqN-14" value="" style="endArrow=none;html=1;strokeWidth=4;fontSize=33;" parent="1" edge="1">
                    <mxGeometry x="-990" y="20" width="50" height="50" as="geometry">
                        <mxPoint x="-459.52169076751954" y="255.22012578616352" as="sourcePoint"/>
                        <mxPoint x="-186.88542825361515" y="263.7735849056604" as="targetPoint"/>
                    </mxGeometry>
                </mxCell>
                <mxCell id="T-B9nDz0MbjNUT2mxpqN-15" value="98" style="text;html=1;strokeColor=none;fillColor=none;align=center;verticalAlign=middle;whiteSpace=wrap;fontSize=33;fontStyle=1;strokeWidth=4;rounded=1;" parent="1" vertex="1">
                    <mxGeometry x="-364.41601779755285" y="203.8993710691824" width="84.53837597330366" height="42.76729559748428" as="geometry"/>
                </mxCell>
                <mxCell id="T-B9nDz0MbjNUT2mxpqN-16" value="99" style="text;html=1;strokeColor=none;fillColor=none;align=center;verticalAlign=middle;whiteSpace=wrap;fontSize=33;fontStyle=1;strokeWidth=4;rounded=1;" parent="1" vertex="1">
                    <mxGeometry x="-224.92769744160182" y="270.188679245283" width="84.53837597330366" height="42.76729559748428" as="geometry"/>
                </mxCell>
                <mxCell id="T-B9nDz0MbjNUT2mxpqN-18" value="92" style="text;html=1;strokeColor=none;fillColor=none;align=center;verticalAlign=middle;whiteSpace=wrap;fontSize=33;fontStyle=1;strokeWidth=4;rounded=1;" parent="1" vertex="1">
                    <mxGeometry x="-406.68520578420475" y="383.52201257861634" width="84.53837597330366" height="42.76729559748428" as="geometry"/>
                </mxCell>
                <mxCell id="T-B9nDz0MbjNUT2mxpqN-19" value="4106-4054" style="text;html=1;strokeColor=none;fillColor=none;align=center;verticalAlign=middle;whiteSpace=wrap;fontSize=33;fontStyle=1;strokeWidth=4;rounded=1;" parent="1" vertex="1">
                    <mxGeometry x="-246.06229143492772" y="524.6540880503144" width="190.21134593993324" height="42.76729559748428" as="geometry"/>
                </mxCell>
                <mxCell id="T-B9nDz0MbjNUT2mxpqN-20" value="160" style="text;html=1;strokeColor=none;fillColor=none;align=center;verticalAlign=middle;whiteSpace=wrap;fontSize=33;fontStyle=1;strokeWidth=4;rounded=1;" parent="1" vertex="1">
                    <mxGeometry x="-45.28364849833156" y="623.0188679245283" width="84.53837597330366" height="42.76729559748428" as="geometry"/>
                </mxCell>
                <mxCell id="T-B9nDz0MbjNUT2mxpqN-21" value="" style="endArrow=none;html=1;strokeWidth=4;fontSize=33;" parent="1" edge="1">
                    <mxGeometry x="-990" y="20" width="50" height="50" as="geometry">
                        <mxPoint x="-38.94327030033378" y="875.3459119496855" as="sourcePoint"/>
                        <mxPoint x="106.88542825361515" y="804.7798742138365" as="targetPoint"/>
                    </mxGeometry>
                </mxCell>
                <mxCell id="T-B9nDz0MbjNUT2mxpqN-22" value="" style="verticalLabelPosition=bottom;align=center;html=1;verticalAlign=top;pointerEvents=1;dashed=0;shape=mxgraph.pid2valves.valve;valveType=gate;defState=closed;strokeWidth=4;fillColor=none;fontSize=33;rotation=60;strokeColor=#0000FF;rounded=1;" parent="1" vertex="1">
                    <mxGeometry x="41.36818687430468" y="815.4716981132075" width="42.26918798665183" height="21.38364779874214" as="geometry"/>
                </mxCell>
                <mxCell id="T-B9nDz0MbjNUT2mxpqN-25" value="4132" style="text;html=1;strokeColor=none;fillColor=none;align=center;verticalAlign=middle;whiteSpace=wrap;fontSize=33;fontStyle=1;strokeWidth=4;rounded=1;" parent="1" vertex="1">
                    <mxGeometry x="1.212458286985452" y="849.6855345911949" width="84.53837597330366" height="42.76729559748428" as="geometry"/>
                </mxCell>
                <mxCell id="T-B9nDz0MbjNUT2mxpqN-26" value="4069" style="text;html=1;strokeColor=none;fillColor=none;align=center;verticalAlign=middle;whiteSpace=wrap;fontSize=33;fontStyle=1;strokeWidth=4;rounded=1;" parent="1" vertex="1">
                    <mxGeometry x="-79.09899888765301" y="873.2075471698113" width="84.53837597330366" height="42.76729559748428" as="geometry"/>
                </mxCell>
                <mxCell id="T-B9nDz0MbjNUT2mxpqN-27" value="" style="endArrow=none;html=1;strokeWidth=4;fontSize=33;" parent="1" edge="1">
                    <mxGeometry x="-990" y="20" width="50" height="50" as="geometry">
                        <mxPoint x="-364.41601779755285" y="1003.6477987421383" as="sourcePoint"/>
                        <mxPoint x="94.20467185761959" y="772.7044025157232" as="targetPoint"/>
                        <Array as="points">
                            <mxPoint x="-309.4660734149055" y="1153.3333333333333"/>
                            <mxPoint x="-246.06229143492772" y="1217.4842767295597"/>
                            <mxPoint x="-182.65850945495004" y="1196.1006289308175"/>
                            <mxPoint x="-161.52391546162403" y="1131.9496855345913"/>
                            <mxPoint x="-182.65850945495004" y="1025.0314465408806"/>
                            <mxPoint x="-161.52391546162403" y="1003.6477987421383"/>
                            <mxPoint x="-182.65850945495004" y="918.1132075471698"/>
                            <mxPoint x="-55.85094549499445" y="811.1949685534591"/>
                        </Array>
                    </mxGeometry>
                </mxCell>
                <mxCell id="T-B9nDz0MbjNUT2mxpqN-28" value="157" style="text;html=1;strokeColor=none;fillColor=none;align=center;verticalAlign=middle;whiteSpace=wrap;fontSize=33;fontStyle=1;strokeWidth=4;rounded=1;" parent="1" vertex="1">
                    <mxGeometry x="-74.87208008898779" y="755.5974842767296" width="84.53837597330366" height="42.76729559748428" as="geometry"/>
                </mxCell>
                <mxCell id="T-B9nDz0MbjNUT2mxpqN-29" value="164" style="text;html=1;strokeColor=none;fillColor=none;align=center;verticalAlign=middle;whiteSpace=wrap;fontSize=33;fontStyle=1;strokeWidth=4;rounded=1;" parent="1" vertex="1">
                    <mxGeometry x="-262.9699666295885" y="928.8050314465409" width="84.53837597330366" height="42.76729559748428" as="geometry"/>
                </mxCell>
                <mxCell id="T-B9nDz0MbjNUT2mxpqN-31" value="159" style="text;html=1;strokeColor=none;fillColor=none;align=center;verticalAlign=middle;whiteSpace=wrap;fontSize=33;fontStyle=1;strokeWidth=4;rounded=1;" parent="1" vertex="1">
                    <mxGeometry x="-254.51612903225816" y="987.8666666666667" width="84.53837597330366" height="42.76729559748428" as="geometry"/>
                </mxCell>
                <mxCell id="T-B9nDz0MbjNUT2mxpqN-33" value="" style="verticalLabelPosition=bottom;align=center;outlineConnect=0;dashed=0;html=1;verticalAlign=top;shape=mxgraph.pid.flow_sensors.rotameter;strokeWidth=6;fillColor=none;fontSize=33;rotation=-90;fontColor=#009900;strokeColor=#009900;rounded=1;" parent="1" vertex="1">
                    <mxGeometry x="1298.8765294771965" y="2296.5459119496854" width="29.588431590656285" height="17.919496855345912" as="geometry"/>
                </mxCell>
                <mxCell id="T-B9nDz0MbjNUT2mxpqN-34" value="" style="verticalLabelPosition=bottom;align=center;outlineConnect=0;dashed=0;html=1;verticalAlign=top;shape=mxgraph.pid.flow_sensors.rotameter;strokeWidth=6;fillColor=none;fontSize=33;rotation=-90;strokeColor=#009900;rounded=1;" parent="1" vertex="1">
                    <mxGeometry x="-144.61624026696336" y="885.6314465408805" width="29.588431590656285" height="17.919496855345912" as="geometry"/>
                </mxCell>
                <mxCell id="T-B9nDz0MbjNUT2mxpqN-35" value="163" style="text;html=1;strokeColor=none;fillColor=none;align=center;verticalAlign=middle;whiteSpace=wrap;fontSize=33;fontStyle=1;strokeWidth=4;rounded=1;" parent="1" vertex="1">
                    <mxGeometry x="-163.6373748609567" y="1099.874213836478" width="84.53837597330366" height="42.76729559748428" as="geometry"/>
                </mxCell>
                <mxCell id="T-B9nDz0MbjNUT2mxpqN-36" value="162" style="text;html=1;strokeColor=none;fillColor=none;align=center;verticalAlign=middle;whiteSpace=wrap;fontSize=33;fontStyle=1;strokeWidth=4;rounded=1;" parent="1" vertex="1">
                    <mxGeometry x="-199.5661846496107" y="1185.4088050314465" width="84.53837597330366" height="42.76729559748428" as="geometry"/>
                </mxCell>
                <mxCell id="T-B9nDz0MbjNUT2mxpqN-37" value="96" style="text;html=1;strokeColor=none;fillColor=none;align=center;verticalAlign=middle;whiteSpace=wrap;fontSize=33;fontStyle=1;strokeWidth=4;rounded=1;" parent="1" vertex="1">
                    <mxGeometry x="-341.1679644048944" y="1180.319496855346" width="63.40378197997775" height="42.76729559748428" as="geometry"/>
                </mxCell>
                <mxCell id="T-B9nDz0MbjNUT2mxpqN-39" value="95" style="text;html=1;strokeColor=none;fillColor=none;align=center;verticalAlign=middle;whiteSpace=wrap;fontSize=33;fontStyle=1;strokeWidth=4;rounded=1;" parent="1" vertex="1">
                    <mxGeometry x="-330.6006674082314" y="1099.874213836478" width="84.53837597330366" height="42.76729559748428" as="geometry"/>
                </mxCell>
                <mxCell id="T-B9nDz0MbjNUT2mxpqN-41" value="94" style="text;html=1;strokeColor=none;fillColor=none;align=center;verticalAlign=middle;whiteSpace=wrap;fontSize=33;fontStyle=1;strokeWidth=4;rounded=1;" parent="1" vertex="1">
                    <mxGeometry x="-370.75639599555063" y="987.8666666666667" width="84.53837597330366" height="42.76729559748428" as="geometry"/>
                </mxCell>
                <mxCell id="T-B9nDz0MbjNUT2mxpqN-52" value="" style="endArrow=classic;html=1;strokeWidth=4;fontSize=33;exitX=0.75;exitY=1;exitDx=0;exitDy=0;strokeColor=#666600;" parent="1" source="12" edge="1">
                    <mxGeometry x="-990" y="20" width="50" height="50" as="geometry">
                        <mxPoint x="383.74860956618454" y="789.8113207547169" as="sourcePoint"/>
                        <mxPoint x="447.15239154616233" y="896.7295597484276" as="targetPoint"/>
                    </mxGeometry>
                </mxCell>
                <mxCell id="T-B9nDz0MbjNUT2mxpqN-77" value="" style="endArrow=classic;html=1;strokeWidth=4;fontSize=33;strokeColor=#666600;exitX=1;exitY=0.5;exitDx=0;exitDy=0;" parent="1" source="21" edge="1">
                    <mxGeometry x="-990" y="20" width="50" height="50" as="geometry">
                        <mxPoint x="-269.3103448275863" y="1433.4591194968552" as="sourcePoint"/>
                        <mxPoint x="-112.91434927697446" y="1474.0880503144654" as="targetPoint"/>
                    </mxGeometry>
                </mxCell>
                <mxCell id="T-B9nDz0MbjNUT2mxpqN-79" value="SECTOR -VA" style="whiteSpace=wrap;html=1;strokeWidth=4;fillColor=none;fontSize=41;fontStyle=1;rounded=1;" parent="1" vertex="1">
                    <mxGeometry x="527.46" y="260" width="366.35" height="83.33" as="geometry"/>
                </mxCell>
                <mxCell id="T-B9nDz0MbjNUT2mxpqN-83" value="" style="endArrow=none;html=1;strokeWidth=4;fontSize=33;" parent="1" edge="1">
                    <mxGeometry x="-990" y="20" width="50" height="50" as="geometry">
                        <mxPoint x="106.88542825361515" y="813.3333333333334" as="sourcePoint"/>
                        <mxPoint x="2634.5828698553946" y="2053.5849056603774" as="targetPoint"/>
                        <Array as="points">
                            <mxPoint x="248.48720800889873" y="828.3018867924528"/>
                            <mxPoint x="565.5061179087875" y="849.6855345911949"/>
                            <mxPoint x="713.4482758620688" y="871.069182389937"/>
                            <mxPoint x="840.2558398220244" y="1063.5220125786163"/>
                            <mxPoint x="967.0634037819798" y="1191.8238993710693"/>
                            <mxPoint x="1038.921023359288" y="1234.5911949685535"/>
                            <mxPoint x="1115.0055617352614" y="1255.9748427672955"/>
                            <mxPoint x="1093.8709677419351" y="1362.8930817610062"/>
                            <mxPoint x="1093.8709677419351" y="1448.427672955975"/>
                            <mxPoint x="1229.1323692992214" y="1645.1572327044025"/>
                            <mxPoint x="1372.8476084538374" y="1469.811320754717"/>
                            <mxPoint x="1393.9822024471632" y="1448.427672955975"/>
                            <mxPoint x="1499.655172413793" y="1491.1949685534591"/>
                            <mxPoint x="1541.9243604004446" y="1512.5786163522012"/>
                            <mxPoint x="1563.0589543937708" y="1491.1949685534591"/>
                            <mxPoint x="1584.1935483870966" y="1512.5786163522012"/>
                            <mxPoint x="1584.1935483870966" y="1533.9622641509434"/>
                            <mxPoint x="1715.228031145717" y="1581.006289308176"/>
                            <mxPoint x="1715.228031145717" y="1623.7735849056603"/>
                            <mxPoint x="1968.8431590656282" y="1709.308176100629"/>
                            <mxPoint x="2159.0545050055616" y="1730.691823899371"/>
                            <mxPoint x="2306.996662958843" y="1752.0754716981132"/>
                            <mxPoint x="2264.727474972191" y="1901.7610062893082"/>
                            <mxPoint x="2222.4582869855394" y="1987.2955974842766"/>
                            <mxPoint x="2180.1890989988874" y="2040.7547169811323"/>
                            <mxPoint x="2095.650723025584" y="2115.5974842767296"/>
                            <mxPoint x="2201.323692992213" y="2158.3647798742136"/>
                            <mxPoint x="2243.592880978865" y="2158.3647798742136"/>
                            <mxPoint x="2391.5350389321466" y="2136.9811320754716"/>
                            <mxPoint x="2370.400444938821" y="2030.062893081761"/>
                        </Array>
                    </mxGeometry>
                </mxCell>
                <mxCell id="T-B9nDz0MbjNUT2mxpqN-84" value="" style="endArrow=none;html=1;strokeWidth=4;fontSize=33;" parent="1" edge="1">
                    <mxGeometry x="-990" y="20" width="50" height="50" as="geometry">
                        <mxPoint x="231.57953281423806" y="1154.7589098532494" as="sourcePoint"/>
                        <mxPoint x="404.88320355951055" y="838.9937106918239" as="targetPoint"/>
                        <Array as="points">
                            <mxPoint x="256.94104560622895" y="1046.4150943396226"/>
                            <mxPoint x="320.34482758620675" y="918.1132075471698"/>
                        </Array>
                    </mxGeometry>
                </mxCell>
                <mxCell id="T-B9nDz0MbjNUT2mxpqN-86" value="" style="verticalLabelPosition=bottom;align=center;html=1;verticalAlign=top;pointerEvents=1;dashed=0;shape=mxgraph.pid2valves.valve;valveType=gate;defState=closed;strokeWidth=4;fillColor=none;fontSize=33;rotation=15;strokeColor=#0000FF;rounded=1;" parent="1" vertex="1">
                    <mxGeometry x="339.3659621802001" y="1292.3270440251572" width="42.26918798665183" height="21.38364779874214" as="geometry"/>
                </mxCell>
                <mxCell id="T-B9nDz0MbjNUT2mxpqN-87" value="" style="verticalLabelPosition=bottom;align=center;html=1;verticalAlign=top;pointerEvents=1;dashed=0;shape=mxgraph.pid2valves.valve;valveType=gate;defState=closed;strokeWidth=4;fillColor=none;fontSize=33;rotation=30;strokeColor=#0000FF;rounded=1;" parent="1" vertex="1">
                    <mxGeometry x="840.2558398220244" y="1105.8830188679244" width="42.26918798665183" height="21.38364779874214" as="geometry"/>
                </mxCell>
                <mxCell id="T-B9nDz0MbjNUT2mxpqN-88" value="" style="verticalLabelPosition=bottom;align=center;html=1;verticalAlign=top;pointerEvents=1;dashed=0;shape=mxgraph.pid2valves.valve;valveType=gate;defState=closed;strokeWidth=4;fillColor=none;fontSize=33;rotation=42;rounded=1;" parent="1" vertex="1">
                    <mxGeometry x="354.1601779755283" y="856.5069182389936" width="42.26918798665183" height="21.38364779874214" as="geometry"/>
                </mxCell>
                <mxCell id="T-B9nDz0MbjNUT2mxpqN-90" value="" style="endArrow=none;html=1;strokeWidth=4;fontSize=33;" parent="1" edge="1">
                    <mxGeometry x="-990" y="20" width="50" height="50" as="geometry">
                        <mxPoint x="430.24471635150167" y="1403.5220125786163" as="sourcePoint"/>
                        <mxPoint x="495.7619577308119" y="847.5471698113207" as="targetPoint"/>
                        <Array as="points">
                            <mxPoint x="468.28698553948834" y="1345.7861635220127"/>
                            <mxPoint x="349.9332591768632" y="1324.4025157232704"/>
                            <mxPoint x="371.067853170189" y="1281.6352201257862"/>
                            <mxPoint x="328.7986651835372" y="1281.6352201257862"/>
                            <mxPoint x="404.88320355951055" y="1196.1006289308175"/>
                            <mxPoint x="459.8331479421579" y="1089.1823899371068"/>
                            <mxPoint x="489.4215795328141" y="960.8805031446541"/>
                        </Array>
                    </mxGeometry>
                </mxCell>
                <mxCell id="T-B9nDz0MbjNUT2mxpqN-91" value="&lt;font style=&quot;font-size: 33px;&quot;&gt;156&lt;/font&gt;" style="text;html=1;strokeColor=none;fillColor=none;align=center;verticalAlign=middle;whiteSpace=wrap;fontSize=33;fontStyle=1;strokeWidth=4;rounded=1;" parent="1" vertex="1">
                    <mxGeometry x="147.04115684093426" y="826.1635220125786" width="84.53837597330366" height="42.76729559748428" as="geometry"/>
                </mxCell>
                <mxCell id="T-B9nDz0MbjNUT2mxpqN-93" value="&lt;font style=&quot;font-size: 33px;&quot;&gt;4124&lt;/font&gt;" style="text;html=1;strokeColor=none;fillColor=none;align=center;verticalAlign=middle;whiteSpace=wrap;fontSize=33;fontStyle=1;strokeWidth=4;rounded=1;" parent="1" vertex="1">
                    <mxGeometry x="231.57953281423806" y="868.9308176100628" width="84.53837597330366" height="42.76729559748428" as="geometry"/>
                </mxCell>
                <mxCell id="T-B9nDz0MbjNUT2mxpqN-95" value="155" style="text;html=1;strokeColor=none;fillColor=none;align=center;verticalAlign=middle;whiteSpace=wrap;fontSize=33;fontStyle=1;strokeWidth=4;rounded=1;" parent="1" vertex="1">
                    <mxGeometry x="227.35261401557273" y="915.9748427672956" width="84.53837597330366" height="42.76729559748428" as="geometry"/>
                </mxCell>
                <mxCell id="T-B9nDz0MbjNUT2mxpqN-96" value="153" style="text;html=1;strokeColor=none;fillColor=none;align=center;verticalAlign=middle;whiteSpace=wrap;fontSize=33;fontStyle=1;strokeWidth=4;rounded=1;" parent="1" vertex="1">
                    <mxGeometry x="197.7641824249165" y="971.5723270440251" width="84.53837597330366" height="42.76729559748428" as="geometry"/>
                </mxCell>
                <mxCell id="T-B9nDz0MbjNUT2mxpqN-97" value="&lt;span style=&quot;font-size: 33px;&quot;&gt;&lt;span style=&quot;font-size: 33px;&quot;&gt;167&lt;/span&gt;&lt;/span&gt;" style="text;html=1;strokeColor=none;fillColor=none;align=center;verticalAlign=middle;whiteSpace=wrap;fontSize=33;fontStyle=0;fontColor=#FF0000;strokeWidth=4;rounded=1;" parent="1" vertex="1">
                    <mxGeometry x="400.6562847608452" y="986.5408805031446" width="84.53837597330366" height="42.76729559748428" as="geometry"/>
                </mxCell>
                <mxCell id="T-B9nDz0MbjNUT2mxpqN-99" value="142" style="text;html=1;strokeColor=none;fillColor=none;align=center;verticalAlign=middle;whiteSpace=wrap;fontSize=33;fontStyle=1;strokeWidth=4;rounded=1;" parent="1" vertex="1">
                    <mxGeometry x="172.40266963292538" y="1042.1383647798743" width="84.53837597330366" height="42.76729559748428" as="geometry"/>
                </mxCell>
                <mxCell id="T-B9nDz0MbjNUT2mxpqN-100" value="148" style="text;html=1;strokeColor=none;fillColor=none;align=center;verticalAlign=middle;whiteSpace=wrap;fontSize=33;fontStyle=1;strokeWidth=4;rounded=1;" parent="1" vertex="1">
                    <mxGeometry x="227.35261401557273" y="1125.5345911949685" width="84.53837597330366" height="42.76729559748428" as="geometry"/>
                </mxCell>
                <mxCell id="T-B9nDz0MbjNUT2mxpqN-102" value="&lt;span style=&quot;font-size: 33px;&quot;&gt;&lt;span style=&quot;font-size: 33px;&quot;&gt;177&lt;/span&gt;&lt;/span&gt;" style="text;html=1;strokeColor=none;fillColor=none;align=center;verticalAlign=middle;whiteSpace=wrap;fontSize=33;fontStyle=0;fontColor=#FF0000;strokeWidth=4;rounded=1;" parent="1" vertex="1">
                    <mxGeometry x="288.64293659621785" y="1198.2389937106918" width="84.53837597330366" height="42.76729559748428" as="geometry"/>
                </mxCell>
                <mxCell id="T-B9nDz0MbjNUT2mxpqN-103" value="147" style="text;html=1;strokeColor=none;fillColor=none;align=center;verticalAlign=middle;whiteSpace=wrap;fontSize=33;fontStyle=1;strokeWidth=4;rounded=1;" parent="1" vertex="1">
                    <mxGeometry x="189.31034482758605" y="1268.8050314465409" width="84.53837597330366" height="42.76729559748428" as="geometry"/>
                </mxCell>
                <mxCell id="T-B9nDz0MbjNUT2mxpqN-105" value="150" style="text;html=1;strokeColor=none;fillColor=none;align=center;verticalAlign=middle;whiteSpace=wrap;fontSize=33;fontStyle=1;strokeWidth=4;rounded=1;" parent="1" vertex="1">
                    <mxGeometry x="144.92769744160182" y="1322.2641509433963" width="84.53837597330366" height="42.76729559748428" as="geometry"/>
                </mxCell>
                <mxCell id="T-B9nDz0MbjNUT2mxpqN-106" value="" style="endArrow=none;html=1;strokeWidth=4;fontSize=33;" parent="1" edge="1">
                    <mxGeometry x="-990" y="20" width="50" height="50" as="geometry">
                        <mxPoint x="13.89321468298101" y="1294.4654088050315" as="sourcePoint"/>
                        <mxPoint x="89.97775305895425" y="1189.685534591195" as="targetPoint"/>
                        <Array as="points">
                            <mxPoint x="-17.808676307007886" y="1253.8364779874214"/>
                        </Array>
                    </mxGeometry>
                </mxCell>
                <mxCell id="T-B9nDz0MbjNUT2mxpqN-107" value="154" style="text;html=1;strokeColor=none;fillColor=none;align=center;verticalAlign=middle;whiteSpace=wrap;fontSize=33;fontStyle=1;strokeWidth=4;rounded=1;" parent="1" vertex="1">
                    <mxGeometry x="22.347052280311345" y="1225.2251572327043" width="84.53837597330366" height="42.76729559748428" as="geometry"/>
                </mxCell>
                <mxCell id="T-B9nDz0MbjNUT2mxpqN-108" value="149" style="text;html=1;strokeColor=none;fillColor=none;align=center;verticalAlign=middle;whiteSpace=wrap;fontSize=33;fontStyle=1;strokeWidth=4;rounded=1;" parent="1" vertex="1">
                    <mxGeometry x="-3.0144605116796583" y="1292.3270440251572" width="84.53837597330366" height="42.76729559748428" as="geometry"/>
                </mxCell>
                <mxCell id="T-B9nDz0MbjNUT2mxpqN-109" value="" style="endArrow=none;dashed=1;html=1;strokeWidth=4;fontSize=33;" parent="1" edge="1">
                    <mxGeometry x="-990" y="20" width="50" height="50" as="geometry">
                        <mxPoint x="495.7619577308119" y="851.8238993710692" as="sourcePoint"/>
                        <mxPoint x="216.78531701890984" y="120.50314465408803" as="targetPoint"/>
                        <Array as="points">
                            <mxPoint x="525.3503893214681" y="747.0440251572327"/>
                            <mxPoint x="447.15239154616233" y="682.8930817610063"/>
                            <mxPoint x="447.15239154616233" y="640.125786163522"/>
                            <mxPoint x="362.61401557285853" y="533.2075471698113"/>
                            <mxPoint x="299.21023359288097" y="426.28930817610063"/>
                            <mxPoint x="299.21023359288097" y="362.1383647798742"/>
                            <mxPoint x="214.67185761957717" y="319.37106918238993"/>
                        </Array>
                    </mxGeometry>
                </mxCell>
                <mxCell id="T-B9nDz0MbjNUT2mxpqN-110" value="" style="endArrow=none;dashed=1;html=1;strokeWidth=4;fontSize=33;" parent="1" edge="1">
                    <mxGeometry x="-990" y="20" width="50" height="50" as="geometry">
                        <mxPoint x="166.0622914349276" y="597.3584905660377" as="sourcePoint"/>
                        <mxPoint x="343.5928809788654" y="261.6352201257862" as="targetPoint"/>
                        <Array as="points">
                            <mxPoint x="172.40266963292538" y="490.44025157232704"/>
                        </Array>
                    </mxGeometry>
                </mxCell>
                <mxCell id="T-B9nDz0MbjNUT2mxpqN-111" value="" style="endArrow=none;dashed=1;html=1;strokeWidth=4;fontSize=33;" parent="1" edge="1">
                    <mxGeometry x="-990" y="20" width="50" height="50" as="geometry">
                        <mxPoint x="519.0100111234703" y="747.0440251572327" as="sourcePoint"/>
                        <mxPoint x="719.7886540600666" y="554.5911949685534" as="targetPoint"/>
                    </mxGeometry>
                </mxCell>
                <mxCell id="T-B9nDz0MbjNUT2mxpqN-112" value="4129" style="text;html=1;strokeColor=none;fillColor=none;align=center;verticalAlign=middle;whiteSpace=wrap;fontSize=33;fontStyle=1;strokeWidth=4;rounded=1;" parent="1" vertex="1">
                    <mxGeometry x="563.3926585094548" y="864.6540880503145" width="84.53837597330366" height="42.76729559748428" as="geometry"/>
                </mxCell>
                <mxCell id="T-B9nDz0MbjNUT2mxpqN-113" value="" style="endArrow=none;html=1;strokeWidth=4;fontSize=33;" parent="1" edge="1">
                    <mxGeometry x="-990" y="20" width="50" height="50" as="geometry">
                        <mxPoint x="423.9043381535039" y="1164.0251572327045" as="sourcePoint"/>
                        <mxPoint x="497.87541713014457" y="1172.5786163522012" as="targetPoint"/>
                    </mxGeometry>
                </mxCell>
                <mxCell id="T-B9nDz0MbjNUT2mxpqN-114" value="" style="endArrow=none;html=1;strokeWidth=4;fontSize=33;" parent="1" edge="1">
                    <mxGeometry x="-990" y="20" width="50" height="50" as="geometry">
                        <mxPoint x="383.74860956618454" y="1219.6226415094338" as="sourcePoint"/>
                        <mxPoint x="586.6407119021133" y="1129.811320754717" as="targetPoint"/>
                        <Array as="points">
                            <mxPoint x="573.9599555061179" y="1245.2830188679245"/>
                        </Array>
                    </mxGeometry>
                </mxCell>
                <mxCell id="T-B9nDz0MbjNUT2mxpqN-115" value="" style="endArrow=none;html=1;strokeWidth=4;fontSize=33;" parent="1" edge="1">
                    <mxGeometry x="-990" y="20" width="50" height="50" as="geometry">
                        <mxPoint x="461.94660734149056" y="1313.7106918238994" as="sourcePoint"/>
                        <mxPoint x="474.6273637374859" y="1232.4528301886792" as="targetPoint"/>
                    </mxGeometry>
                </mxCell>
                <mxCell id="T-B9nDz0MbjNUT2mxpqN-116" value="&lt;span style=&quot;font-size: 33px;&quot;&gt;&lt;span style=&quot;font-size: 33px;&quot;&gt;246&lt;/span&gt;&lt;/span&gt;" style="text;html=1;strokeColor=none;fillColor=none;align=center;verticalAlign=middle;whiteSpace=wrap;fontSize=33;fontStyle=0;fontColor=#FF0000;strokeWidth=4;rounded=1;" parent="1" vertex="1">
                    <mxGeometry x="461.94660734149056" y="1125.5345911949685" width="84.53837597330366" height="42.76729559748428" as="geometry"/>
                </mxCell>
                <mxCell id="T-B9nDz0MbjNUT2mxpqN-117" value="244" style="text;html=1;strokeColor=none;fillColor=none;align=center;verticalAlign=middle;whiteSpace=wrap;fontSize=33;fontStyle=1;strokeWidth=4;rounded=1;" parent="1" vertex="1">
                    <mxGeometry x="573.9599555061179" y="1092.6465408805032" width="84.53837597330366" height="42.76729559748428" as="geometry"/>
                </mxCell>
                <mxCell id="T-B9nDz0MbjNUT2mxpqN-118" value="247" style="text;html=1;strokeColor=none;fillColor=none;align=center;verticalAlign=middle;whiteSpace=wrap;fontSize=33;fontStyle=1;strokeWidth=4;rounded=1;" parent="1" vertex="1">
                    <mxGeometry x="409.11012235817566" y="1185.4088050314465" width="84.53837597330366" height="42.76729559748428" as="geometry"/>
                </mxCell>
                <mxCell id="T-B9nDz0MbjNUT2mxpqN-119" value="252" style="text;html=1;strokeColor=none;fillColor=none;align=center;verticalAlign=middle;whiteSpace=wrap;fontSize=33;fontStyle=1;strokeWidth=4;rounded=1;" parent="1" vertex="1">
                    <mxGeometry x="368.9543937708563" y="1226.0377358490566" width="84.53837597330366" height="42.76729559748428" as="geometry"/>
                </mxCell>
                <mxCell id="T-B9nDz0MbjNUT2mxpqN-120" value="248" style="text;html=1;strokeColor=none;fillColor=none;align=center;verticalAlign=middle;whiteSpace=wrap;fontSize=33;fontStyle=1;strokeWidth=4;rounded=1;" parent="1" vertex="1">
                    <mxGeometry x="531.6907675194659" y="1247.827672955975" width="84.53837597330366" height="42.76729559748428" as="geometry"/>
                </mxCell>
                <mxCell id="T-B9nDz0MbjNUT2mxpqN-121" value="245" style="text;html=1;strokeColor=none;fillColor=none;align=center;verticalAlign=middle;whiteSpace=wrap;fontSize=33;fontStyle=1;strokeWidth=4;rounded=1;" parent="1" vertex="1">
                    <mxGeometry x="461.94660734149056" y="1290.5949685534592" width="84.53837597330366" height="42.76729559748428" as="geometry"/>
                </mxCell>
                <mxCell id="T-B9nDz0MbjNUT2mxpqN-123" value="135" style="text;html=1;strokeColor=none;fillColor=none;align=center;verticalAlign=middle;whiteSpace=wrap;fontSize=33;fontStyle=1;strokeWidth=4;rounded=1;" parent="1" vertex="1">
                    <mxGeometry x="453.4927697441601" y="1335.0943396226414" width="84.53837597330366" height="42.76729559748428" as="geometry"/>
                </mxCell>
                <mxCell id="T-B9nDz0MbjNUT2mxpqN-124" value="144" style="text;html=1;strokeColor=none;fillColor=none;align=center;verticalAlign=middle;whiteSpace=wrap;fontSize=33;fontStyle=1;strokeWidth=4;rounded=1;" parent="1" vertex="1">
                    <mxGeometry x="440.81201334816456" y="1377.8616352201257" width="84.53837597330366" height="42.76729559748428" as="geometry"/>
                </mxCell>
                <mxCell id="T-B9nDz0MbjNUT2mxpqN-125" value="" style="verticalLabelPosition=bottom;align=center;html=1;verticalAlign=top;pointerEvents=1;dashed=0;shape=mxgraph.pid2valves.valve;valveType=gate;defState=closed;strokeWidth=4;fillColor=none;fontSize=33;rotation=0;strokeColor=#0000FF;rounded=1;" parent="1" vertex="1">
                    <mxGeometry x="1072.7363737486094" y="1424.9056603773586" width="42.26918798665183" height="21.38364779874214" as="geometry"/>
                </mxCell>
                <mxCell id="T-B9nDz0MbjNUT2mxpqN-126" value="" style="verticalLabelPosition=bottom;align=center;html=1;verticalAlign=top;pointerEvents=1;dashed=0;shape=mxgraph.pid2valves.valve;valveType=gate;defState=closed;strokeWidth=4;fillColor=none;fontSize=33;rotation=25;strokeColor=#0000FF;rounded=1;" parent="1" vertex="1">
                    <mxGeometry x="1565.1724137931033" y="1557.4842767295597" width="42.26918798665183" height="21.38364779874214" as="geometry"/>
                </mxCell>
                <mxCell id="T-B9nDz0MbjNUT2mxpqN-127" value="" style="verticalLabelPosition=bottom;align=center;html=1;verticalAlign=top;pointerEvents=1;dashed=0;shape=mxgraph.pid2valves.valve;valveType=gate;defState=closed;strokeWidth=4;fillColor=none;fontSize=33;rotation=37;strokeColor=#0000FF;rounded=1;" parent="1" vertex="1">
                    <mxGeometry x="2161.167964404894" y="2025.7861635220127" width="42.26918798665183" height="21.38364779874214" as="geometry"/>
                </mxCell>
                <mxCell id="T-B9nDz0MbjNUT2mxpqN-128" value="" style="verticalLabelPosition=bottom;align=center;html=1;verticalAlign=top;pointerEvents=1;dashed=0;shape=mxgraph.pid2valves.valve;valveType=gate;defState=closed;strokeWidth=4;fillColor=none;fontSize=33;rotation=28;strokeColor=#0000FF;rounded=1;" parent="1" vertex="1">
                    <mxGeometry x="1994.2046718576194" y="1730.691823899371" width="42.26918798665183" height="21.38364779874214" as="geometry"/>
                </mxCell>
                <mxCell id="T-B9nDz0MbjNUT2mxpqN-129" value="" style="verticalLabelPosition=bottom;align=center;html=1;verticalAlign=top;pointerEvents=1;dashed=0;shape=mxgraph.pid2valves.valve;valveType=gate;defState=closed;strokeWidth=4;fillColor=none;fontSize=33;rotation=30;strokeColor=#0000FF;rounded=1;" parent="1" vertex="1">
                    <mxGeometry x="715.5617352614015" y="1764.9056603773586" width="42.26918798665183" height="21.38364779874214" as="geometry"/>
                </mxCell>
                <mxCell id="T-B9nDz0MbjNUT2mxpqN-130" value="" style="endArrow=none;html=1;strokeWidth=4;fontSize=33;" parent="1" edge="1">
                    <mxGeometry x="-990" y="20" width="50" height="50" as="geometry">
                        <mxPoint x="764.1713014460511" y="1303.0188679245282" as="sourcePoint"/>
                        <mxPoint x="871.9577308120133" y="1097.7358490566037" as="targetPoint"/>
                    </mxGeometry>
                </mxCell>
                <mxCell id="T-B9nDz0MbjNUT2mxpqN-131" value="" style="endArrow=none;html=1;strokeWidth=4;fontSize=33;" parent="1" edge="1">
                    <mxGeometry x="-990" y="20" width="50" height="50" as="geometry">
                        <mxPoint x="867.730812013348" y="1356.4779874213837" as="sourcePoint"/>
                        <mxPoint x="666.9521690767519" y="1206.7924528301887" as="targetPoint"/>
                        <Array as="points">
                            <mxPoint x="768.3982202447162" y="1303.0188679245282"/>
                            <mxPoint x="641.5906562847608" y="1303.0188679245282"/>
                        </Array>
                    </mxGeometry>
                </mxCell>
                <mxCell id="T-B9nDz0MbjNUT2mxpqN-132" value="" style="endArrow=none;html=1;strokeWidth=4;fontSize=33;" parent="1" edge="1">
                    <mxGeometry x="-990" y="20" width="50" height="50" as="geometry">
                        <mxPoint x="941.7018909899887" y="1281.6352201257862" as="sourcePoint"/>
                        <mxPoint x="975.5172413793102" y="1196.1006289308175" as="targetPoint"/>
                    </mxGeometry>
                </mxCell>
                <mxCell id="T-B9nDz0MbjNUT2mxpqN-133" value="232" style="text;html=1;strokeColor=none;fillColor=none;align=center;verticalAlign=middle;whiteSpace=wrap;fontSize=33;fontStyle=1;strokeWidth=4;rounded=1;" parent="1" vertex="1">
                    <mxGeometry x="933.2480533926584" y="1284.1798742138367" width="84.53837597330366" height="42.76729559748428" as="geometry"/>
                </mxCell>
                <mxCell id="T-B9nDz0MbjNUT2mxpqN-134" value="231" style="text;html=1;strokeColor=none;fillColor=none;align=center;verticalAlign=middle;whiteSpace=wrap;fontSize=33;fontStyle=1;strokeWidth=4;rounded=1;" parent="1" vertex="1">
                    <mxGeometry x="827.5750834260289" y="1168.3018867924527" width="84.53837597330366" height="42.76729559748428" as="geometry"/>
                </mxCell>
                <mxCell id="T-B9nDz0MbjNUT2mxpqN-136" value="&lt;span style=&quot;font-weight: normal; font-size: 33px;&quot;&gt;&lt;span style=&quot;font-size: 33px;&quot;&gt;233&lt;/span&gt;&lt;/span&gt;" style="text;html=1;strokeColor=none;fillColor=none;align=center;verticalAlign=middle;whiteSpace=wrap;fontSize=33;fontStyle=1;fontColor=#FF0000;strokeWidth=4;rounded=1;" parent="1" vertex="1">
                    <mxGeometry x="800.1001112347051" y="1228.1761006289307" width="84.53837597330366" height="42.76729559748428" as="geometry"/>
                </mxCell>
                <mxCell id="T-B9nDz0MbjNUT2mxpqN-137" value="235" style="text;html=1;strokeColor=none;fillColor=none;align=center;verticalAlign=middle;whiteSpace=wrap;fontSize=33;fontStyle=1;strokeWidth=4;rounded=1;" parent="1" vertex="1">
                    <mxGeometry x="654.2714126807564" y="1172.5786163522012" width="84.53837597330366" height="42.76729559748428" as="geometry"/>
                </mxCell>
                <mxCell id="T-B9nDz0MbjNUT2mxpqN-138" value="243" style="text;html=1;strokeColor=none;fillColor=none;align=center;verticalAlign=middle;whiteSpace=wrap;fontSize=33;fontStyle=0;fontColor=#FF0000;strokeWidth=4;rounded=1;" parent="1" vertex="1">
                    <mxGeometry x="857.1635150166851" y="1340.1836477987422" width="84.53837597330366" height="42.76729559748428" as="geometry"/>
                </mxCell>
                <mxCell id="T-B9nDz0MbjNUT2mxpqN-141" value="" style="endArrow=none;html=1;strokeWidth=4;fontSize=33;" parent="1" edge="1">
                    <mxGeometry x="-990" y="20" width="50" height="50" as="geometry">
                        <mxPoint x="679.6329254727475" y="1858.993710691824" as="sourcePoint"/>
                        <mxPoint x="679.6329254727475" y="1303.0188679245282" as="targetPoint"/>
                        <Array as="points">
                            <mxPoint x="764.1713014460511" y="1730.691823899371"/>
                            <mxPoint x="912.1134593993324" y="1581.006289308176"/>
                            <mxPoint x="848.7096774193546" y="1538.2389937106918"/>
                            <mxPoint x="865.6173526140155" y="1452.7044025157234"/>
                            <mxPoint x="675.4060066740822" y="1431.3207547169811"/>
                        </Array>
                    </mxGeometry>
                </mxCell>
                <mxCell id="T-B9nDz0MbjNUT2mxpqN-143" value="" style="endArrow=none;html=1;strokeWidth=4;fontSize=33;" parent="1" edge="1">
                    <mxGeometry x="-990" y="20" width="50" height="50" as="geometry">
                        <mxPoint x="633.1368186874304" y="1484.7798742138364" as="sourcePoint"/>
                        <mxPoint x="679.6329254727475" y="1409.937106918239" as="targetPoint"/>
                        <Array as="points">
                            <mxPoint x="637.3637374860955" y="1409.937106918239"/>
                        </Array>
                    </mxGeometry>
                </mxCell>
                <mxCell id="T-B9nDz0MbjNUT2mxpqN-144" value="241" style="text;html=1;strokeColor=none;fillColor=none;align=center;verticalAlign=middle;whiteSpace=wrap;fontSize=33;fontStyle=1;strokeWidth=4;rounded=1;" parent="1" vertex="1">
                    <mxGeometry x="675.4060066740822" y="1311.572327044025" width="84.53837597330366" height="42.76729559748428" as="geometry"/>
                </mxCell>
                <mxCell id="T-B9nDz0MbjNUT2mxpqN-145" value="240" style="text;html=1;strokeColor=none;fillColor=none;align=center;verticalAlign=middle;whiteSpace=wrap;fontSize=33;fontStyle=1;strokeWidth=4;rounded=1;" parent="1" vertex="1">
                    <mxGeometry x="673.2925472747497" y="1371.446540880503" width="84.53837597330366" height="42.76729559748428" as="geometry"/>
                </mxCell>
                <mxCell id="T-B9nDz0MbjNUT2mxpqN-146" value="237" style="text;html=1;strokeColor=none;fillColor=none;align=center;verticalAlign=middle;whiteSpace=wrap;fontSize=33;fontStyle=1;strokeWidth=4;rounded=1;" parent="1" vertex="1">
                    <mxGeometry x="588.7541713014459" y="1483.0477987421384" width="84.53837597330366" height="42.76729559748428" as="geometry"/>
                </mxCell>
                <mxCell id="T-B9nDz0MbjNUT2mxpqN-148" value="239" style="text;html=1;strokeColor=none;fillColor=none;align=center;verticalAlign=middle;whiteSpace=wrap;fontSize=33;fontStyle=1;strokeWidth=4;rounded=1;" parent="1" vertex="1">
                    <mxGeometry x="850.8231368186873" y="1420.6289308176101" width="84.53837597330366" height="42.76729559748428" as="geometry"/>
                </mxCell>
                <mxCell id="T-B9nDz0MbjNUT2mxpqN-149" value="236" style="text;html=1;strokeColor=none;fillColor=none;align=center;verticalAlign=middle;whiteSpace=wrap;fontSize=33;fontStyle=1;strokeWidth=4;rounded=1;" parent="1" vertex="1">
                    <mxGeometry x="850.8231368186873" y="1501.8867924528302" width="84.53837597330366" height="42.76729559748428" as="geometry"/>
                </mxCell>
                <mxCell id="T-B9nDz0MbjNUT2mxpqN-150" value="238" style="text;html=1;strokeColor=none;fillColor=none;align=center;verticalAlign=middle;whiteSpace=wrap;fontSize=33;fontStyle=1;strokeWidth=4;rounded=1;" parent="1" vertex="1">
                    <mxGeometry x="895.2057842046718" y="1576.7295597484276" width="84.53837597330366" height="42.76729559748428" as="geometry"/>
                </mxCell>
                <mxCell id="T-B9nDz0MbjNUT2mxpqN-151" value="&lt;b style=&quot;font-size: 33px;&quot;&gt;242&lt;/b&gt;" style="text;html=1;strokeColor=none;fillColor=none;align=center;verticalAlign=middle;whiteSpace=wrap;fontSize=33;strokeWidth=4;rounded=1;" parent="1" vertex="1">
                    <mxGeometry x="738.80978865406" y="1645.1572327044025" width="84.53837597330366" height="42.76729559748428" as="geometry"/>
                </mxCell>
                <mxCell id="T-B9nDz0MbjNUT2mxpqN-152" value="230" style="text;html=1;strokeColor=none;fillColor=none;align=center;verticalAlign=middle;whiteSpace=wrap;fontSize=33;fontStyle=1;strokeWidth=4;rounded=1;" parent="1" vertex="1">
                    <mxGeometry x="766.2847608453837" y="1730.691823899371" width="84.53837597330366" height="42.76729559748428" as="geometry"/>
                </mxCell>
                <mxCell id="T-B9nDz0MbjNUT2mxpqN-153" value="&lt;span style=&quot;font-size: 33px;&quot;&gt;&lt;span style=&quot;font-size: 33px;&quot;&gt;233&lt;/span&gt;&lt;/span&gt;" style="text;html=1;strokeColor=none;fillColor=none;align=center;verticalAlign=middle;whiteSpace=wrap;fontSize=33;fontStyle=0;fontColor=#FF0000;strokeWidth=4;rounded=1;" parent="1" vertex="1">
                    <mxGeometry x="700.7675194660733" y="1809.811320754717" width="84.53837597330366" height="42.76729559748428" as="geometry"/>
                </mxCell>
                <mxCell id="T-B9nDz0MbjNUT2mxpqN-154" value="234" style="text;html=1;strokeColor=none;fillColor=none;align=center;verticalAlign=middle;whiteSpace=wrap;fontSize=33;fontStyle=1;strokeWidth=4;rounded=1;" parent="1" vertex="1">
                    <mxGeometry x="681.74638487208" y="1858.993710691824" width="84.53837597330366" height="42.76729559748428" as="geometry"/>
                </mxCell>
                <mxCell id="T-B9nDz0MbjNUT2mxpqN-156" value="" style="endArrow=none;html=1;strokeWidth=4;fontSize=33;" parent="1" edge="1">
                    <mxGeometry x="-990" y="20" width="50" height="50" as="geometry">
                        <mxPoint x="1123.4593993325916" y="1495.4716981132076" as="sourcePoint"/>
                        <mxPoint x="1250.2669632925472" y="1367.1698113207547" as="targetPoint"/>
                    </mxGeometry>
                </mxCell>
                <mxCell id="T-B9nDz0MbjNUT2mxpqN-157" value="228" style="text;html=1;strokeColor=none;fillColor=none;align=center;verticalAlign=middle;whiteSpace=wrap;fontSize=33;fontStyle=1;strokeWidth=4;rounded=1;" parent="1" vertex="1">
                    <mxGeometry x="1144.5939933259174" y="1463.3962264150944" width="84.53837597330366" height="42.76729559748428" as="geometry"/>
                </mxCell>
                <mxCell id="T-B9nDz0MbjNUT2mxpqN-158" value="165" style="text;html=1;strokeColor=none;fillColor=none;align=center;verticalAlign=middle;whiteSpace=wrap;fontSize=33;fontStyle=1;strokeWidth=4;rounded=1;" parent="1" vertex="1">
                    <mxGeometry x="1243.9265850945494" y="1356.4779874213837" width="84.53837597330366" height="42.76729559748428" as="geometry"/>
                </mxCell>
                <mxCell id="T-B9nDz0MbjNUT2mxpqN-159" value="227" style="text;html=1;strokeColor=none;fillColor=none;align=center;verticalAlign=middle;whiteSpace=wrap;fontSize=33;fontStyle=1;strokeWidth=4;rounded=1;" parent="1" vertex="1">
                    <mxGeometry x="1095.984427141268" y="1566.0377358490566" width="84.53837597330366" height="42.76729559748428" as="geometry"/>
                </mxCell>
                <mxCell id="T-B9nDz0MbjNUT2mxpqN-160" value="217" style="text;html=1;strokeColor=none;fillColor=none;align=center;verticalAlign=middle;whiteSpace=wrap;fontSize=33;fontStyle=1;strokeWidth=4;rounded=1;" parent="1" vertex="1">
                    <mxGeometry x="1313.670745272525" y="1533.9622641509434" width="84.53837597330366" height="42.76729559748428" as="geometry"/>
                </mxCell>
                <mxCell id="T-B9nDz0MbjNUT2mxpqN-161" value="212" style="text;html=1;strokeColor=none;fillColor=none;align=center;verticalAlign=middle;whiteSpace=wrap;fontSize=33;fontStyle=1;strokeWidth=4;rounded=1;" parent="1" vertex="1">
                    <mxGeometry x="1364.3937708565072" y="1459.119496855346" width="84.53837597330366" height="42.76729559748428" as="geometry"/>
                </mxCell>
                <mxCell id="T-B9nDz0MbjNUT2mxpqN-162" value="170" style="text;html=1;strokeColor=none;fillColor=none;align=center;verticalAlign=middle;whiteSpace=wrap;fontSize=33;fontStyle=1;strokeWidth=4;rounded=1;" parent="1" vertex="1">
                    <mxGeometry x="1484.860956618465" y="1506.1635220125786" width="84.53837597330366" height="42.76729559748428" as="geometry"/>
                </mxCell>
                <mxCell id="T-B9nDz0MbjNUT2mxpqN-163" value="214" style="text;html=1;strokeColor=none;fillColor=none;align=center;verticalAlign=middle;whiteSpace=wrap;fontSize=33;fontStyle=1;strokeWidth=4;rounded=1;" parent="1" vertex="1">
                    <mxGeometry x="1425.6840934371521" y="1489.0566037735848" width="84.53837597330366" height="42.76729559748428" as="geometry"/>
                </mxCell>
                <mxCell id="T-B9nDz0MbjNUT2mxpqN-164" value="229" style="text;html=1;strokeColor=none;fillColor=none;align=center;verticalAlign=middle;whiteSpace=wrap;fontSize=33;fontStyle=1;strokeWidth=4;rounded=1;" parent="1" vertex="1">
                    <mxGeometry x="1533.4705228031144" y="1446.2893081761006" width="84.53837597330366" height="42.76729559748428" as="geometry"/>
                </mxCell>
                <mxCell id="T-B9nDz0MbjNUT2mxpqN-165" value="171" style="text;html=1;strokeColor=none;fillColor=none;align=center;verticalAlign=middle;whiteSpace=wrap;fontSize=33;fontStyle=1;strokeWidth=4;rounded=1;" parent="1" vertex="1">
                    <mxGeometry x="1575.7397107897664" y="1482.6415094339623" width="84.53837597330366" height="42.76729559748428" as="geometry"/>
                </mxCell>
                <mxCell id="T-B9nDz0MbjNUT2mxpqN-168" value="" style="endArrow=classic;html=1;strokeWidth=4;fontSize=33;exitX=0.5;exitY=1;exitDx=0;exitDy=0;strokeColor=#666600;" parent="1" source="31" edge="1">
                    <mxGeometry x="-990" y="20" width="50" height="50" as="geometry">
                        <mxPoint x="1706.7741935483868" y="1456.9811320754716" as="sourcePoint"/>
                        <mxPoint x="1672.9588431590655" y="1645.1572327044025" as="targetPoint"/>
                    </mxGeometry>
                </mxCell>
                <mxCell id="T-B9nDz0MbjNUT2mxpqN-169" value="172" style="text;html=1;strokeColor=none;fillColor=none;align=center;verticalAlign=middle;whiteSpace=wrap;fontSize=33;fontStyle=1;strokeWidth=4;rounded=1;" parent="1" vertex="1">
                    <mxGeometry x="1702.547274749722" y="1533.9622641509434" width="84.53837597330366" height="42.76729559748428" as="geometry"/>
                </mxCell>
                <mxCell id="T-B9nDz0MbjNUT2mxpqN-170" value="173" style="text;html=1;strokeColor=none;fillColor=none;align=center;verticalAlign=middle;whiteSpace=wrap;fontSize=33;fontStyle=1;strokeWidth=4;rounded=1;" parent="1" vertex="1">
                    <mxGeometry x="1812.4471635150167" y="1619.4968553459119" width="84.53837597330366" height="42.76729559748428" as="geometry"/>
                </mxCell>
                <mxCell id="T-B9nDz0MbjNUT2mxpqN-171" value="190" style="text;html=1;strokeColor=none;fillColor=none;align=center;verticalAlign=middle;whiteSpace=wrap;fontSize=33;fontStyle=1;strokeWidth=4;rounded=1;" parent="1" vertex="1">
                    <mxGeometry x="1909.6662958843158" y="1647.2955974842766" width="84.53837597330366" height="42.76729559748428" as="geometry"/>
                </mxCell>
                <mxCell id="T-B9nDz0MbjNUT2mxpqN-172" value="133" style="text;html=1;strokeColor=none;fillColor=none;align=center;verticalAlign=middle;whiteSpace=wrap;fontSize=33;fontStyle=1;strokeWidth=4;rounded=1;" parent="1" vertex="1">
                    <mxGeometry x="2142.1468298109007" y="1687.9245283018868" width="84.53837597330366" height="42.76729559748428" as="geometry"/>
                </mxCell>
                <mxCell id="T-B9nDz0MbjNUT2mxpqN-173" value="166" style="text;html=1;strokeColor=none;fillColor=none;align=center;verticalAlign=middle;whiteSpace=wrap;fontSize=33;fontStyle=1;strokeWidth=4;rounded=1;" parent="1" vertex="1">
                    <mxGeometry x="2285.862068965517" y="1709.308176100629" width="84.53837597330366" height="42.76729559748428" as="geometry"/>
                </mxCell>
                <mxCell id="T-B9nDz0MbjNUT2mxpqN-174" value="186" style="text;html=1;strokeColor=none;fillColor=none;align=center;verticalAlign=middle;whiteSpace=wrap;fontSize=33;fontStyle=1;strokeWidth=4;rounded=1;" parent="1" vertex="1">
                    <mxGeometry x="2203.437152391546" y="1786.2893081761006" width="84.53837597330366" height="42.76729559748428" as="geometry"/>
                </mxCell>
                <mxCell id="T-B9nDz0MbjNUT2mxpqN-175" value="" style="endArrow=none;html=1;strokeWidth=4;fontSize=33;" parent="1" edge="1">
                    <mxGeometry x="-990" y="20" width="50" height="50" as="geometry">
                        <mxPoint x="1820.9010011123469" y="2049.3081761006288" as="sourcePoint"/>
                        <mxPoint x="2032.246941045606" y="1715.7232704402516" as="targetPoint"/>
                        <Array as="points">
                            <mxPoint x="1926.5739710789767" y="1837.6100628930817"/>
                        </Array>
                    </mxGeometry>
                </mxCell>
                <mxCell id="T-B9nDz0MbjNUT2mxpqN-176" value="260" style="text;html=1;strokeColor=none;fillColor=none;align=center;verticalAlign=middle;whiteSpace=wrap;fontSize=33;fontStyle=1;strokeWidth=4;rounded=1;" parent="1" vertex="1">
                    <mxGeometry x="1956.1624026696327" y="1788.427672955975" width="84.53837597330366" height="42.76729559748428" as="geometry"/>
                </mxCell>
                <mxCell id="T-B9nDz0MbjNUT2mxpqN-177" value="181" style="text;html=1;strokeColor=none;fillColor=none;align=center;verticalAlign=middle;whiteSpace=wrap;fontSize=33;fontStyle=1;strokeWidth=4;rounded=1;" parent="1" vertex="1">
                    <mxGeometry x="2061.8353726362625" y="1730.691823899371" width="84.53837597330366" height="42.76729559748428" as="geometry"/>
                </mxCell>
                <mxCell id="T-B9nDz0MbjNUT2mxpqN-178" value="" style="endArrow=none;html=1;strokeWidth=4;fontSize=33;" parent="1" edge="1">
                    <mxGeometry x="-990" y="20" width="50" height="50" as="geometry">
                        <mxPoint x="1888.53170189099" y="1916.7295597484276" as="sourcePoint"/>
                        <mxPoint x="1968.8431590656282" y="2049.3081761006288" as="targetPoint"/>
                        <Array as="points">
                            <mxPoint x="1985.7508342602891" y="1959.4968553459119"/>
                        </Array>
                    </mxGeometry>
                </mxCell>
                <mxCell id="T-B9nDz0MbjNUT2mxpqN-179" value="180" style="text;html=1;strokeColor=none;fillColor=none;align=center;verticalAlign=middle;whiteSpace=wrap;fontSize=33;fontStyle=1;strokeWidth=4;rounded=1;" parent="1" vertex="1">
                    <mxGeometry x="1896.9855394883202" y="1871.823899371069" width="84.53837597330366" height="42.76729559748428" as="geometry"/>
                </mxCell>
                <mxCell id="T-B9nDz0MbjNUT2mxpqN-180" value="189" style="text;html=1;strokeColor=none;fillColor=none;align=center;verticalAlign=middle;whiteSpace=wrap;fontSize=33;fontStyle=1;strokeWidth=4;rounded=1;" parent="1" vertex="1">
                    <mxGeometry x="1973.0700778642936" y="1927.4213836477986" width="84.53837597330366" height="42.76729559748428" as="geometry"/>
                </mxCell>
                <mxCell id="T-B9nDz0MbjNUT2mxpqN-181" value="187" style="text;html=1;strokeColor=none;fillColor=none;align=center;verticalAlign=middle;whiteSpace=wrap;fontSize=33;fontStyle=1;strokeWidth=4;rounded=1;" parent="1" vertex="1">
                    <mxGeometry x="1973.0700778642936" y="1957.3584905660377" width="84.53837597330366" height="42.76729559748428" as="geometry"/>
                </mxCell>
                <mxCell id="T-B9nDz0MbjNUT2mxpqN-183" value="188" style="text;html=1;strokeColor=none;fillColor=none;align=center;verticalAlign=middle;whiteSpace=wrap;fontSize=33;fontStyle=1;strokeWidth=4;rounded=1;" parent="1" vertex="1">
                    <mxGeometry x="1956.1624026696327" y="2045.0314465408806" width="84.53837597330366" height="42.76729559748428" as="geometry"/>
                </mxCell>
                <mxCell id="T-B9nDz0MbjNUT2mxpqN-184" value="185" style="text;html=1;strokeColor=none;fillColor=none;align=center;verticalAlign=middle;whiteSpace=wrap;fontSize=33;fontStyle=1;strokeWidth=4;rounded=1;" parent="1" vertex="1">
                    <mxGeometry x="1751.1568409343713" y="2007.8666666666666" width="84.53837597330366" height="42.76729559748428" as="geometry"/>
                </mxCell>
                <mxCell id="T-B9nDz0MbjNUT2mxpqN-185" value="183" style="text;html=1;strokeColor=none;fillColor=none;align=center;verticalAlign=middle;whiteSpace=wrap;fontSize=33;fontStyle=1;strokeWidth=4;rounded=1;" parent="1" vertex="1">
                    <mxGeometry x="2190.7563959955505" y="1858.993710691824" width="84.53837597330366" height="42.76729559748428" as="geometry"/>
                </mxCell>
                <mxCell id="T-B9nDz0MbjNUT2mxpqN-186" value="179" style="text;html=1;strokeColor=none;fillColor=none;align=center;verticalAlign=middle;whiteSpace=wrap;fontSize=33;fontStyle=1;strokeWidth=4;rounded=1;" parent="1" vertex="1">
                    <mxGeometry x="2230.9121245828696" y="1925.2830188679245" width="84.53837597330366" height="42.76729559748428" as="geometry"/>
                </mxCell>
                <mxCell id="T-B9nDz0MbjNUT2mxpqN-188" value="4152" style="text;html=1;strokeColor=none;fillColor=none;align=center;verticalAlign=middle;whiteSpace=wrap;fontSize=33;fontStyle=1;strokeWidth=4;rounded=1;" parent="1" vertex="1">
                    <mxGeometry x="2011.1123470522803" y="2094.2138364779876" width="84.53837597330366" height="42.76729559748428" as="geometry"/>
                </mxCell>
                <mxCell id="T-B9nDz0MbjNUT2mxpqN-189" value="184" style="text;html=1;strokeColor=none;fillColor=none;align=center;verticalAlign=middle;whiteSpace=wrap;fontSize=33;fontStyle=1;strokeWidth=4;rounded=1;" parent="1" vertex="1">
                    <mxGeometry x="2131.579532814238" y="2068.553459119497" width="84.53837597330366" height="42.76729559748428" as="geometry"/>
                </mxCell>
                <mxCell id="T-B9nDz0MbjNUT2mxpqN-190" value="304" style="text;html=1;strokeColor=none;fillColor=none;align=center;verticalAlign=middle;whiteSpace=wrap;fontSize=33;fontStyle=1;strokeWidth=4;rounded=1;" parent="1" vertex="1">
                    <mxGeometry x="2163.2814238042265" y="2111.320754716981" width="84.53837597330366" height="42.76729559748428" as="geometry"/>
                </mxCell>
                <mxCell id="T-B9nDz0MbjNUT2mxpqN-192" value="" style="endArrow=none;html=1;strokeWidth=4;fontSize=33;" parent="1" edge="1">
                    <mxGeometry x="-990" y="20" width="50" height="50" as="geometry">
                        <mxPoint x="2256.2736373748608" y="2156.2264150943397" as="sourcePoint"/>
                        <mxPoint x="2306.996662958843" y="1965.9119496855346" as="targetPoint"/>
                        <Array as="points">
                            <mxPoint x="2285.862068965517" y="2094.2138364779876"/>
                            <mxPoint x="2243.592880978865" y="2072.830188679245"/>
                            <mxPoint x="2264.727474972191" y="2030.062893081761"/>
                        </Array>
                    </mxGeometry>
                </mxCell>
                <mxCell id="T-B9nDz0MbjNUT2mxpqN-193" value="&lt;span style=&quot;font-weight: normal; font-size: 33px;&quot;&gt;&lt;span style=&quot;font-size: 33px;&quot;&gt;301&lt;/span&gt;&lt;/span&gt;" style="text;html=1;strokeColor=none;fillColor=none;align=center;verticalAlign=middle;whiteSpace=wrap;fontSize=33;fontStyle=1;fontColor=#FF0000;strokeWidth=4;rounded=1;" parent="1" vertex="1">
                    <mxGeometry x="2300.656284760845" y="1944.5283018867924" width="84.53837597330366" height="42.76729559748428" as="geometry"/>
                </mxCell>
                <mxCell id="T-B9nDz0MbjNUT2mxpqN-194" value="302" style="text;html=1;strokeColor=none;fillColor=none;align=center;verticalAlign=middle;whiteSpace=wrap;fontSize=33;fontStyle=1;strokeWidth=4;rounded=1;" parent="1" vertex="1">
                    <mxGeometry x="2271.0678531701888" y="1993.7106918238994" width="84.53837597330366" height="42.76729559748428" as="geometry"/>
                </mxCell>
                <mxCell id="T-B9nDz0MbjNUT2mxpqN-196" value="303" style="text;html=1;strokeColor=none;fillColor=none;align=center;verticalAlign=middle;whiteSpace=wrap;fontSize=33;fontStyle=1;strokeWidth=4;rounded=1;" parent="1" vertex="1">
                    <mxGeometry x="2243.592880978865" y="2040.7547169811323" width="84.53837597330366" height="42.76729559748428" as="geometry"/>
                </mxCell>
                <mxCell id="T-B9nDz0MbjNUT2mxpqN-198" value="" style="verticalLabelPosition=bottom;align=center;html=1;verticalAlign=top;pointerEvents=1;dashed=0;shape=mxgraph.pid2valves.valve;valveType=gate;defState=closed;strokeWidth=4;fillColor=none;fontSize=33;rotation=84;strokeColor=#0000FF;rounded=1;" parent="1" vertex="1">
                    <mxGeometry x="2317.563959955506" y="2134.8427672955972" width="42.26918798665183" height="21.38364779874214" as="geometry"/>
                </mxCell>
                <mxCell id="T-B9nDz0MbjNUT2mxpqN-199" value="" style="verticalLabelPosition=bottom;align=center;html=1;verticalAlign=top;pointerEvents=1;dashed=0;shape=mxgraph.pid2valves.valve;valveType=gate;defState=closed;strokeWidth=4;fillColor=none;fontSize=33;rotation=-15;strokeColor=#0000FF;rounded=1;" parent="1" vertex="1">
                    <mxGeometry x="1715.228031145717" y="1649.433962264151" width="42.26918798665183" height="21.38364779874214" as="geometry"/>
                </mxCell>
                <mxCell id="T-B9nDz0MbjNUT2mxpqN-202" value="" style="endArrow=none;html=1;strokeWidth=4;fontSize=33;" parent="1" edge="1">
                    <mxGeometry x="-990" y="20" width="50" height="50" as="geometry">
                        <mxPoint x="2636.696329254727" y="2295.2201257861634" as="sourcePoint"/>
                        <mxPoint x="2636.696329254727" y="1831.1949685534591" as="targetPoint"/>
                    </mxGeometry>
                </mxCell>
                <mxCell id="T-B9nDz0MbjNUT2mxpqN-203" value="" style="endArrow=none;html=1;strokeWidth=4;fontSize=33;" parent="1" edge="1">
                    <mxGeometry x="-990" y="20" width="50" height="50" as="geometry">
                        <mxPoint x="2290.088987764182" y="2273.8364779874214" as="sourcePoint"/>
                        <mxPoint x="2220.3448275862065" y="2158.3647798742136" as="targetPoint"/>
                        <Array as="points">
                            <mxPoint x="2290.088987764182" y="2201.132075471698"/>
                            <mxPoint x="2226.6852057842043" y="2201.132075471698"/>
                        </Array>
                    </mxGeometry>
                </mxCell>
                <mxCell id="T-B9nDz0MbjNUT2mxpqN-204" value="&lt;span style=&quot;font-weight: normal; font-size: 33px;&quot;&gt;&lt;span style=&quot;font-size: 33px;&quot;&gt;4174&lt;/span&gt;&lt;/span&gt;" style="text;html=1;strokeColor=none;fillColor=none;align=center;verticalAlign=middle;whiteSpace=wrap;fontSize=33;fontStyle=1;fontColor=#FF0000;strokeWidth=4;rounded=1;" parent="1" vertex="1">
                    <mxGeometry x="2296.42936596218" y="2265.2830188679245" width="84.53837597330366" height="42.76729559748428" as="geometry"/>
                </mxCell>
                <mxCell id="T-B9nDz0MbjNUT2mxpqN-205" value="176" style="text;html=1;strokeColor=none;fillColor=none;align=center;verticalAlign=middle;whiteSpace=wrap;fontSize=33;fontStyle=1;strokeWidth=4;rounded=1;" parent="1" vertex="1">
                    <mxGeometry x="2370.400444938821" y="2132.7044025157234" width="84.53837597330366" height="42.76729559748428" as="geometry"/>
                </mxCell>
                <mxCell id="T-B9nDz0MbjNUT2mxpqN-206" value="174" style="text;html=1;strokeColor=none;fillColor=none;align=center;verticalAlign=middle;whiteSpace=wrap;fontSize=33;fontStyle=1;strokeWidth=4;rounded=1;" parent="1" vertex="1">
                    <mxGeometry x="2370.400444938821" y="2038.2100628930816" width="84.53837597330366" height="42.76729559748428" as="geometry"/>
                </mxCell>
                <mxCell id="T-B9nDz0MbjNUT2mxpqN-207" value="16" style="text;html=1;strokeColor=none;fillColor=none;align=center;verticalAlign=middle;whiteSpace=wrap;fontSize=33;fontStyle=1;strokeWidth=4;rounded=1;" parent="1" vertex="1">
                    <mxGeometry x="2497.2080088987764" y="1995.4427672955974" width="84.53837597330366" height="42.76729559748428" as="geometry"/>
                </mxCell>
                <mxCell id="T-B9nDz0MbjNUT2mxpqN-208" value="&lt;span style=&quot;font-weight: normal; font-size: 33px;&quot;&gt;&lt;span style=&quot;font-size: 33px;&quot;&gt;17&lt;/span&gt;&lt;/span&gt;" style="text;html=1;strokeColor=none;fillColor=none;align=center;verticalAlign=middle;whiteSpace=wrap;fontSize=33;fontStyle=1;fontColor=#FF0000;strokeWidth=4;rounded=1;" parent="1" vertex="1">
                    <mxGeometry x="2497.2080088987764" y="2046.3572327044026" width="84.53837597330366" height="42.76729559748428" as="geometry"/>
                </mxCell>
                <mxCell id="T-B9nDz0MbjNUT2mxpqN-209" value="15-14" style="text;html=1;strokeColor=none;fillColor=none;align=center;verticalAlign=middle;whiteSpace=wrap;fontSize=33;fontStyle=1;strokeWidth=4;rounded=1;" parent="1" vertex="1">
                    <mxGeometry x="2624.0155728587315" y="1805.5345911949685" width="126.8075639599555" height="42.76729559748428" as="geometry"/>
                </mxCell>
                <mxCell id="T-B9nDz0MbjNUT2mxpqN-210" value="14" style="text;html=1;strokeColor=none;fillColor=none;align=center;verticalAlign=middle;whiteSpace=wrap;fontSize=33;fontStyle=1;strokeWidth=4;rounded=1;" parent="1" vertex="1">
                    <mxGeometry x="2558.4983314794213" y="1835.4716981132076" width="95.10567296996662" height="42.76729559748428" as="geometry"/>
                </mxCell>
                <mxCell id="T-B9nDz0MbjNUT2mxpqN-211" value="12" style="text;html=1;strokeColor=none;fillColor=none;align=center;verticalAlign=middle;whiteSpace=wrap;fontSize=33;fontStyle=1;strokeWidth=4;rounded=1;" parent="1" vertex="1">
                    <mxGeometry x="2563.781979977753" y="1871.823899371069" width="84.53837597330366" height="42.76729559748428" as="geometry"/>
                </mxCell>
                <mxCell id="T-B9nDz0MbjNUT2mxpqN-212" value="11" style="text;html=1;strokeColor=none;fillColor=none;align=center;verticalAlign=middle;whiteSpace=wrap;fontSize=33;fontStyle=1;strokeWidth=4;rounded=1;" parent="1" vertex="1">
                    <mxGeometry x="2563.781979977753" y="1914.5911949685535" width="84.53837597330366" height="42.76729559748428" as="geometry"/>
                </mxCell>
                <mxCell id="T-B9nDz0MbjNUT2mxpqN-213" value="10" style="text;html=1;strokeColor=none;fillColor=none;align=center;verticalAlign=middle;whiteSpace=wrap;fontSize=33;fontStyle=1;strokeWidth=4;rounded=1;" parent="1" vertex="1">
                    <mxGeometry x="2563.781979977753" y="1957.3584905660377" width="84.53837597330366" height="42.76729559748428" as="geometry"/>
                </mxCell>
                <mxCell id="T-B9nDz0MbjNUT2mxpqN-214" value="9" style="text;html=1;strokeColor=none;fillColor=none;align=center;verticalAlign=middle;whiteSpace=wrap;fontSize=33;fontStyle=1;strokeWidth=4;rounded=1;" parent="1" vertex="1">
                    <mxGeometry x="2573.2925472747497" y="2004.4025157232704" width="84.53837597330366" height="42.76729559748428" as="geometry"/>
                </mxCell>
                <mxCell id="T-B9nDz0MbjNUT2mxpqN-215" value="8" style="text;html=1;strokeColor=none;fillColor=none;align=center;verticalAlign=middle;whiteSpace=wrap;fontSize=33;fontStyle=1;strokeWidth=4;rounded=1;" parent="1" vertex="1">
                    <mxGeometry x="2573.2925472747497" y="2053.5849056603774" width="84.53837597330366" height="42.76729559748428" as="geometry"/>
                </mxCell>
                <mxCell id="T-B9nDz0MbjNUT2mxpqN-216" value="5" style="text;html=1;strokeColor=none;fillColor=none;align=center;verticalAlign=middle;whiteSpace=wrap;fontSize=33;fontStyle=1;strokeWidth=4;rounded=1;" parent="1" vertex="1">
                    <mxGeometry x="2573.2925472747497" y="2092.0754716981132" width="84.53837597330366" height="42.76729559748428" as="geometry"/>
                </mxCell>
                <mxCell id="T-B9nDz0MbjNUT2mxpqN-217" value="4" style="text;html=1;strokeColor=none;fillColor=none;align=center;verticalAlign=middle;whiteSpace=wrap;fontSize=33;fontStyle=1;strokeWidth=4;rounded=1;" parent="1" vertex="1">
                    <mxGeometry x="2573.2925472747497" y="2130.566037735849" width="84.53837597330366" height="42.76729559748428" as="geometry"/>
                </mxCell>
                <mxCell id="T-B9nDz0MbjNUT2mxpqN-218" value="7" style="text;html=1;strokeColor=none;fillColor=none;align=center;verticalAlign=middle;whiteSpace=wrap;fontSize=33;fontStyle=1;strokeWidth=4;rounded=1;" parent="1" vertex="1">
                    <mxGeometry x="2611.334816462736" y="2045.0314465408806" width="84.53837597330366" height="42.76729559748428" as="geometry"/>
                </mxCell>
                <mxCell id="T-B9nDz0MbjNUT2mxpqN-219" value="6" style="text;html=1;strokeColor=none;fillColor=none;align=center;verticalAlign=middle;whiteSpace=wrap;fontSize=33;fontStyle=1;strokeWidth=4;rounded=1;" parent="1" vertex="1">
                    <mxGeometry x="2609.2213570634035" y="2091.262893081761" width="84.53837597330366" height="42.76729559748428" as="geometry"/>
                </mxCell>
                <mxCell id="T-B9nDz0MbjNUT2mxpqN-220" value="3" style="text;html=1;strokeColor=none;fillColor=none;align=center;verticalAlign=middle;whiteSpace=wrap;fontSize=33;fontStyle=1;strokeWidth=4;rounded=1;" parent="1" vertex="1">
                    <mxGeometry x="2573.2925472747497" y="2171.194968553459" width="84.53837597330366" height="42.76729559748428" as="geometry"/>
                </mxCell>
                <mxCell id="T-B9nDz0MbjNUT2mxpqN-222" value="2" style="text;html=1;strokeColor=none;fillColor=none;align=center;verticalAlign=middle;whiteSpace=wrap;fontSize=33;fontStyle=1;strokeWidth=4;rounded=1;" parent="1" vertex="1">
                    <mxGeometry x="2573.2925472747497" y="2213.962264150943" width="84.53837597330366" height="42.76729559748428" as="geometry"/>
                </mxCell>
                <mxCell id="T-B9nDz0MbjNUT2mxpqN-223" value="1" style="text;html=1;strokeColor=none;fillColor=none;align=center;verticalAlign=middle;whiteSpace=wrap;fontSize=33;fontStyle=1;strokeWidth=4;rounded=1;" parent="1" vertex="1">
                    <mxGeometry x="2573.2925472747497" y="2256.7295597484276" width="84.53837597330366" height="42.76729559748428" as="geometry"/>
                </mxCell>
                <mxCell id="T-B9nDz0MbjNUT2mxpqN-225" value="" style="endArrow=none;html=1;strokeWidth=4;fontSize=33;" parent="1" edge="1">
                    <mxGeometry x="-990" y="20" width="50" height="50" as="geometry">
                        <mxPoint x="1548.2647385984424" y="2327.2955974842766" as="sourcePoint"/>
                        <mxPoint x="1721.5684093437148" y="1623.7735849056603" as="targetPoint"/>
                        <Array as="points">
                            <mxPoint x="1694.0934371523913" y="1987.2955974842766"/>
                            <mxPoint x="1799.766407119021" y="1773.4591194968552"/>
                        </Array>
                    </mxGeometry>
                </mxCell>
                <mxCell id="T-B9nDz0MbjNUT2mxpqN-226" value="" style="endArrow=none;html=1;strokeWidth=4;fontSize=33;" parent="1" edge="1">
                    <mxGeometry x="-990" y="20" width="50" height="50" as="geometry">
                        <mxPoint x="1628.576195773081" y="2147.672955974843" as="sourcePoint"/>
                        <mxPoint x="1778.6318131256949" y="2205.4088050314467" as="targetPoint"/>
                    </mxGeometry>
                </mxCell>
                <mxCell id="T-B9nDz0MbjNUT2mxpqN-227" value="" style="endArrow=none;html=1;strokeWidth=4;fontSize=33;" parent="1" edge="1">
                    <mxGeometry x="-990" y="20" width="50" height="50" as="geometry">
                        <mxPoint x="1753.2703003337037" y="2194.7169811320755" as="sourcePoint"/>
                        <mxPoint x="1778.6318131256949" y="2134.8427672955972" as="targetPoint"/>
                    </mxGeometry>
                </mxCell>
                <mxCell id="T-B9nDz0MbjNUT2mxpqN-229" value="191" style="text;html=1;strokeColor=none;fillColor=none;align=center;verticalAlign=middle;whiteSpace=wrap;fontSize=33;fontStyle=1;strokeWidth=4;rounded=1;" parent="1" vertex="1">
                    <mxGeometry x="1744.8164627363735" y="1662.264150943396" width="84.53837597330366" height="42.76729559748428" as="geometry"/>
                </mxCell>
                <mxCell id="T-B9nDz0MbjNUT2mxpqN-231" value="195" style="text;html=1;strokeColor=none;fillColor=none;align=center;verticalAlign=middle;whiteSpace=wrap;fontSize=33;fontStyle=1;strokeWidth=4;rounded=1;" parent="1" vertex="1">
                    <mxGeometry x="1787.0856507230255" y="1745.6603773584905" width="84.53837597330366" height="42.76729559748428" as="geometry"/>
                </mxCell>
                <mxCell id="T-B9nDz0MbjNUT2mxpqN-232" value="196" style="text;html=1;strokeColor=none;fillColor=none;align=center;verticalAlign=middle;whiteSpace=wrap;fontSize=33;fontStyle=1;strokeWidth=4;rounded=1;" parent="1" vertex="1">
                    <mxGeometry x="1757.497219132369" y="1829.0566037735848" width="84.53837597330366" height="42.76729559748428" as="geometry"/>
                </mxCell>
                <mxCell id="T-B9nDz0MbjNUT2mxpqN-233" value="194" style="text;html=1;strokeColor=none;fillColor=none;align=center;verticalAlign=middle;whiteSpace=wrap;fontSize=33;fontStyle=1;strokeWidth=4;rounded=1;" parent="1" vertex="1">
                    <mxGeometry x="1717.34149054505" y="1914.5911949685535" width="84.53837597330366" height="42.76729559748428" as="geometry"/>
                </mxCell>
                <mxCell id="T-B9nDz0MbjNUT2mxpqN-234" value="193" style="text;html=1;strokeColor=none;fillColor=none;align=center;verticalAlign=middle;whiteSpace=wrap;fontSize=33;fontStyle=1;strokeWidth=4;rounded=1;" parent="1" vertex="1">
                    <mxGeometry x="1691.9799777530588" y="1970.188679245283" width="84.53837597330366" height="42.76729559748428" as="geometry"/>
                </mxCell>
                <mxCell id="T-B9nDz0MbjNUT2mxpqN-235" value="197" style="text;html=1;strokeColor=none;fillColor=none;align=center;verticalAlign=middle;whiteSpace=wrap;fontSize=33;fontStyle=1;strokeWidth=4;rounded=1;" parent="1" vertex="1">
                    <mxGeometry x="1660.27808676307" y="2030.062893081761" width="84.53837597330366" height="42.76729559748428" as="geometry"/>
                </mxCell>
                <mxCell id="T-B9nDz0MbjNUT2mxpqN-237" value="192" style="text;html=1;strokeColor=none;fillColor=none;align=center;verticalAlign=middle;whiteSpace=wrap;fontSize=33;fontStyle=1;strokeWidth=4;rounded=1;" parent="1" vertex="1">
                    <mxGeometry x="1634.9165739710788" y="2087.7987421383646" width="84.53837597330366" height="42.76729559748428" as="geometry"/>
                </mxCell>
                <mxCell id="T-B9nDz0MbjNUT2mxpqN-238" value="182" style="text;html=1;strokeColor=none;fillColor=none;align=center;verticalAlign=middle;whiteSpace=wrap;fontSize=33;fontStyle=1;strokeWidth=4;rounded=1;" parent="1" vertex="1">
                    <mxGeometry x="1770.1779755283646" y="2124.1509433962265" width="84.53837597330366" height="42.76729559748428" as="geometry"/>
                </mxCell>
                <mxCell id="T-B9nDz0MbjNUT2mxpqN-240" value="186" style="text;html=1;strokeColor=none;fillColor=none;align=center;verticalAlign=middle;whiteSpace=wrap;fontSize=33;fontStyle=0;fontColor=#FF0000;strokeWidth=4;rounded=1;" parent="1" vertex="1">
                    <mxGeometry x="1772.291434927697" y="2192.578616352201" width="84.53837597330366" height="42.76729559748428" as="geometry"/>
                </mxCell>
                <mxCell id="T-B9nDz0MbjNUT2mxpqN-241" value="198" style="text;html=1;strokeColor=none;fillColor=none;align=center;verticalAlign=middle;whiteSpace=wrap;fontSize=33;fontStyle=1;strokeWidth=4;rounded=1;" parent="1" vertex="1">
                    <mxGeometry x="1605.3281423804224" y="2166.9182389937105" width="84.53837597330366" height="42.76729559748428" as="geometry"/>
                </mxCell>
                <mxCell id="T-B9nDz0MbjNUT2mxpqN-242" value="199" style="text;html=1;strokeColor=none;fillColor=none;align=center;verticalAlign=middle;whiteSpace=wrap;fontSize=33;fontStyle=1;strokeWidth=4;rounded=1;" parent="1" vertex="1">
                    <mxGeometry x="1582.0800889877642" y="2222.51572327044" width="84.53837597330366" height="42.76729559748428" as="geometry"/>
                </mxCell>
                <mxCell id="T-B9nDz0MbjNUT2mxpqN-244" value="200" style="text;html=1;strokeColor=none;fillColor=none;align=center;verticalAlign=middle;whiteSpace=wrap;fontSize=33;fontStyle=1;strokeWidth=4;rounded=1;" parent="1" vertex="1">
                    <mxGeometry x="1556.718576195773" y="2280.251572327044" width="84.53837597330366" height="42.76729559748428" as="geometry"/>
                </mxCell>
                <mxCell id="T-B9nDz0MbjNUT2mxpqN-245" value="" style="endArrow=none;html=1;strokeWidth=4;fontSize=33;" parent="1" edge="1">
                    <mxGeometry x="-990" y="20" width="50" height="50" as="geometry">
                        <mxPoint x="1248.1535038932147" y="2271.698113207547" as="sourcePoint"/>
                        <mxPoint x="1778.6318131256949" y="2378.616352201258" as="targetPoint"/>
                        <Array as="points">
                            <mxPoint x="1546.15127919911" y="2329.433962264151"/>
                        </Array>
                    </mxGeometry>
                </mxCell>
                <mxCell id="T-B9nDz0MbjNUT2mxpqN-246" value="120" style="text;html=1;strokeColor=none;fillColor=none;align=center;verticalAlign=middle;whiteSpace=wrap;fontSize=33;fontStyle=1;strokeWidth=4;rounded=1;" parent="1" vertex="1">
                    <mxGeometry x="1184.749721913237" y="2271.698113207547" width="84.53837597330366" height="42.76729559748428" as="geometry"/>
                </mxCell>
                <mxCell id="T-B9nDz0MbjNUT2mxpqN-247" value="4052" style="text;html=1;strokeColor=none;fillColor=none;align=center;verticalAlign=middle;whiteSpace=wrap;fontSize=33;fontStyle=1;strokeWidth=4;rounded=1;" parent="1" vertex="1">
                    <mxGeometry x="1341.1457174638485" y="2250.314465408805" width="84.53837597330366" height="42.76729559748428" as="geometry"/>
                </mxCell>
                <mxCell id="T-B9nDz0MbjNUT2mxpqN-248" value="4051" style="text;html=1;strokeColor=none;fillColor=none;align=center;verticalAlign=middle;whiteSpace=wrap;fontSize=33;fontStyle=1;strokeWidth=4;rounded=1;" parent="1" vertex="1">
                    <mxGeometry x="1410.8898776418241" y="2314.4654088050315" width="84.53837597330366" height="42.76729559748428" as="geometry"/>
                </mxCell>
                <mxCell id="T-B9nDz0MbjNUT2mxpqN-249" value="4077" style="text;html=1;strokeColor=none;fillColor=none;align=center;verticalAlign=middle;whiteSpace=wrap;fontSize=33;fontStyle=1;strokeWidth=4;rounded=1;" parent="1" vertex="1">
                    <mxGeometry x="1582.0800889877642" y="2357.2327044025155" width="84.53837597330366" height="42.76729559748428" as="geometry"/>
                </mxCell>
                <mxCell id="T-B9nDz0MbjNUT2mxpqN-250" value="4025" style="text;html=1;strokeColor=none;fillColor=none;align=center;verticalAlign=middle;whiteSpace=wrap;fontSize=33;fontStyle=1;strokeWidth=4;rounded=1;" parent="1" vertex="1">
                    <mxGeometry x="1681.4126807563957" y="2380.754716981132" width="84.53837597330366" height="42.76729559748428" as="geometry"/>
                </mxCell>
                <mxCell id="T-B9nDz0MbjNUT2mxpqN-251" value="4026" style="text;html=1;strokeColor=none;fillColor=none;align=center;verticalAlign=middle;whiteSpace=wrap;fontSize=33;fontStyle=1;strokeWidth=4;rounded=1;" parent="1" vertex="1">
                    <mxGeometry x="1787.0856507230255" y="2367.9245283018868" width="84.53837597330366" height="42.76729559748428" as="geometry"/>
                </mxCell>
                <mxCell id="T-B9nDz0MbjNUT2mxpqN-252" value="" style="verticalLabelPosition=bottom;align=center;html=1;verticalAlign=top;pointerEvents=1;dashed=0;shape=mxgraph.pid2valves.valve;valveType=gate;defState=closed;strokeWidth=4;fillColor=none;fontSize=33;rotation=0;strokeColor=#0000FF;rounded=1;" parent="1" vertex="1">
                    <mxGeometry x="527.4638487208008" y="1846.1635220125786" width="42.26918798665183" height="21.38364779874214" as="geometry"/>
                </mxCell>
                <mxCell id="T-B9nDz0MbjNUT2mxpqN-253" value="" style="verticalLabelPosition=bottom;align=center;html=1;verticalAlign=top;pointerEvents=1;dashed=0;shape=mxgraph.pid2valves.valve;valveType=gate;defState=closed;strokeWidth=4;fillColor=none;fontSize=33;rotation=40;strokeColor=#0000FF;rounded=1;" parent="1" vertex="1">
                    <mxGeometry x="1199.543937708565" y="1643.0188679245282" width="42.26918798665183" height="21.38364779874214" as="geometry"/>
                </mxCell>
                <mxCell id="T-B9nDz0MbjNUT2mxpqN-255" value="" style="verticalLabelPosition=bottom;align=center;html=1;verticalAlign=top;pointerEvents=1;dashed=0;shape=mxgraph.pid2valves.valve;valveType=gate;defState=closed;strokeWidth=4;fillColor=none;fontSize=33;rotation=30;direction=south;strokeColor=#0000FF;rounded=1;" parent="1" vertex="1">
                    <mxGeometry x="-24.149054505005665" y="1544.6540880503144" width="21.134593993325915" height="42.76729559748428" as="geometry"/>
                </mxCell>
                <mxCell id="T-B9nDz0MbjNUT2mxpqN-256" value="" style="verticalLabelPosition=bottom;align=center;html=1;verticalAlign=top;pointerEvents=1;dashed=0;shape=mxgraph.pid2valves.valve;valveType=gate;defState=closed;strokeWidth=4;fillColor=none;fontSize=33;rotation=15;strokeColor=#0000FF;rounded=1;" parent="1" vertex="1">
                    <mxGeometry x="292.8698553948832" y="1816.2264150943397" width="42.26918798665183" height="21.38364779874214" as="geometry"/>
                </mxCell>
                <mxCell id="T-B9nDz0MbjNUT2mxpqN-257" value="" style="verticalLabelPosition=bottom;align=center;html=1;verticalAlign=top;pointerEvents=1;dashed=0;shape=mxgraph.pid2valves.valve;valveType=gate;defState=closed;strokeWidth=4;fillColor=none;fontSize=33;rotation=-25;strokeColor=#0000FF;rounded=1;" parent="1" vertex="1">
                    <mxGeometry x="140.70077864293648" y="1585.2830188679245" width="42.26918798665183" height="21.38364779874214" as="geometry"/>
                </mxCell>
                <mxCell id="T-B9nDz0MbjNUT2mxpqN-258" value="" style="verticalLabelPosition=bottom;align=center;html=1;verticalAlign=top;pointerEvents=1;dashed=0;shape=mxgraph.pid2valves.valve;valveType=gate;defState=closed;strokeWidth=4;fillColor=none;fontSize=33;rotation=-30;strokeColor=#0000FF;rounded=1;" parent="1" vertex="1">
                    <mxGeometry x="-55.85094549499445" y="1685.7861635220127" width="42.26918798665183" height="21.38364779874214" as="geometry"/>
                </mxCell>
                <mxCell id="T-B9nDz0MbjNUT2mxpqN-259" value="" style="verticalLabelPosition=bottom;align=center;outlineConnect=0;dashed=0;html=1;verticalAlign=top;shape=mxgraph.pid.flow_sensors.rotameter;strokeWidth=4;fillColor=none;fontSize=33;rotation=-90;strokeColor=#009900;rounded=1;" parent="1" vertex="1">
                    <mxGeometry x="-360.18909899888774" y="2393.178616352201" width="29.588431590656285" height="17.919496855345912" as="geometry"/>
                </mxCell>
                <mxCell id="T-B9nDz0MbjNUT2mxpqN-260" value="" style="verticalLabelPosition=bottom;align=center;html=1;verticalAlign=top;pointerEvents=1;dashed=0;shape=mxgraph.pid2valves.valve;valveType=gate;defState=closed;strokeWidth=4;fillColor=none;fontSize=33;rotation=-75;strokeColor=#0000FF;rounded=1;" parent="1" vertex="1">
                    <mxGeometry x="-301.0122358175752" y="1929.559748427673" width="42.26918798665183" height="21.38364779874214" as="geometry"/>
                </mxCell>
                <mxCell id="T-B9nDz0MbjNUT2mxpqN-261" value="" style="verticalLabelPosition=bottom;align=center;html=1;verticalAlign=top;pointerEvents=1;dashed=0;shape=mxgraph.pid2valves.valve;valveType=gate;defState=closed;strokeWidth=4;fillColor=none;fontSize=33;rotation=35;strokeColor=#0000FF;rounded=1;" parent="1" vertex="1">
                    <mxGeometry x="-343.28142380422696" y="2346.5408805031448" width="42.26918798665183" height="21.38364779874214" as="geometry"/>
                </mxCell>
                <mxCell id="T-B9nDz0MbjNUT2mxpqN-262" value="" style="verticalLabelPosition=bottom;align=center;html=1;verticalAlign=top;pointerEvents=1;dashed=0;shape=mxgraph.pid2valves.valve;valveType=gate;defState=closed;strokeWidth=4;fillColor=none;fontSize=33;rotation=355;strokeColor=#0000FF;rounded=1;" parent="1" vertex="1">
                    <mxGeometry x="-645.5061179087876" y="2068.553459119497" width="42.26918798665183" height="21.38364779874214" as="geometry"/>
                </mxCell>
                <mxCell id="T-B9nDz0MbjNUT2mxpqN-263" value="" style="verticalLabelPosition=bottom;align=center;html=1;verticalAlign=top;pointerEvents=1;dashed=0;shape=mxgraph.pid2valves.valve;valveType=gate;defState=closed;strokeWidth=4;fillColor=none;fontSize=33;rotation=280;strokeColor=#0000FF;rounded=1;" parent="1" vertex="1">
                    <mxGeometry x="-799.7886540600667" y="2665.1572327044023" width="42.26918798665183" height="21.38364779874214" as="geometry"/>
                </mxCell>
                <mxCell id="T-B9nDz0MbjNUT2mxpqN-264" value="" style="endArrow=none;html=1;strokeWidth=4;fontSize=33;" parent="1" edge="1">
                    <mxGeometry x="-990" y="20" width="50" height="50" as="geometry">
                        <mxPoint x="1501.7686318131255" y="1732.8301886792453" as="sourcePoint"/>
                        <mxPoint x="1596.8743047830922" y="1538.2389937106918" as="targetPoint"/>
                        <Array as="points">
                            <mxPoint x="1565.1724137931033" y="1623.7735849056603"/>
                        </Array>
                    </mxGeometry>
                </mxCell>
                <mxCell id="T-B9nDz0MbjNUT2mxpqN-265" value="" style="endArrow=none;html=1;strokeWidth=4;fontSize=33;" parent="1" edge="1">
                    <mxGeometry x="-990" y="20" width="50" height="50" as="geometry">
                        <mxPoint x="1444.7052280311455" y="1749.937106918239" as="sourcePoint"/>
                        <mxPoint x="1605.3281423804224" y="1709.308176100629" as="targetPoint"/>
                        <Array as="points">
                            <mxPoint x="1567.2858731924357" y="1711.446540880503"/>
                        </Array>
                    </mxGeometry>
                </mxCell>
                <mxCell id="T-B9nDz0MbjNUT2mxpqN-266" value="" style="endArrow=none;html=1;strokeWidth=4;fontSize=33;" parent="1" edge="1">
                    <mxGeometry x="-990" y="20" width="50" height="50" as="geometry">
                        <mxPoint x="1408.7764182424917" y="1910.314465408805" as="sourcePoint"/>
                        <mxPoint x="1446.8186874304783" y="1749.937106918239" as="targetPoint"/>
                        <Array as="points">
                            <mxPoint x="1503.882091212458" y="1773.4591194968552"/>
                        </Array>
                    </mxGeometry>
                </mxCell>
                <mxCell id="T-B9nDz0MbjNUT2mxpqN-267" value="" style="endArrow=none;html=1;strokeWidth=4;fontSize=33;" parent="1" edge="1">
                    <mxGeometry x="-990" y="20" width="50" height="50" as="geometry">
                        <mxPoint x="1260.8342602892103" y="1987.2955974842766" as="sourcePoint"/>
                        <mxPoint x="1366.5072302558397" y="1852.5786163522012" as="targetPoint"/>
                        <Array as="points">
                            <mxPoint x="1345.3726362625139" y="1873.9622641509434"/>
                        </Array>
                    </mxGeometry>
                </mxCell>
                <mxCell id="T-B9nDz0MbjNUT2mxpqN-268" value="" style="endArrow=none;html=1;strokeWidth=4;fontSize=33;" parent="1" edge="1">
                    <mxGeometry x="-990" y="20" width="50" height="50" as="geometry">
                        <mxPoint x="1400.322580645161" y="2072.830188679245" as="sourcePoint"/>
                        <mxPoint x="1364.3937708565072" y="1854.7169811320755" as="targetPoint"/>
                        <Array as="points">
                            <mxPoint x="1461.6129032258063" y="1987.2955974842766"/>
                        </Array>
                    </mxGeometry>
                </mxCell>
                <mxCell id="T-B9nDz0MbjNUT2mxpqN-269" value="" style="endArrow=none;html=1;strokeWidth=4;fontSize=33;" parent="1" edge="1">
                    <mxGeometry x="-990" y="20" width="50" height="50" as="geometry">
                        <mxPoint x="1349.5995550611788" y="2070.6918238993712" as="sourcePoint"/>
                        <mxPoint x="1404.5494994438263" y="2070.6918238993712" as="targetPoint"/>
                    </mxGeometry>
                </mxCell>
                <mxCell id="T-B9nDz0MbjNUT2mxpqN-270" value="" style="endArrow=none;html=1;strokeWidth=4;fontSize=33;" parent="1" edge="1">
                    <mxGeometry x="-990" y="20" width="50" height="50" as="geometry">
                        <mxPoint x="1343.259176863181" y="2092.0754716981132" as="sourcePoint"/>
                        <mxPoint x="1482.7474972191321" y="2104.9056603773583" as="targetPoint"/>
                    </mxGeometry>
                </mxCell>
                <mxCell id="T-B9nDz0MbjNUT2mxpqN-271" value="" style="endArrow=none;html=1;strokeWidth=4;fontSize=33;" parent="1" edge="1">
                    <mxGeometry x="-990" y="20" width="50" height="50" as="geometry">
                        <mxPoint x="1345.3726362625139" y="2094.2138364779876" as="sourcePoint"/>
                        <mxPoint x="1351.7130144605117" y="2068.553459119497" as="targetPoint"/>
                    </mxGeometry>
                </mxCell>
                <mxCell id="T-B9nDz0MbjNUT2mxpqN-272" value="201" style="text;html=1;strokeColor=none;fillColor=none;align=center;verticalAlign=middle;whiteSpace=wrap;fontSize=33;fontStyle=1;strokeWidth=4;rounded=1;" parent="1" vertex="1">
                    <mxGeometry x="1575.7397107897664" y="1585.2830188679245" width="84.53837597330366" height="42.76729559748428" as="geometry"/>
                </mxCell>
                <mxCell id="T-B9nDz0MbjNUT2mxpqN-273" value="204" style="text;html=1;strokeColor=none;fillColor=none;align=center;verticalAlign=middle;whiteSpace=wrap;fontSize=33;fontStyle=1;strokeWidth=4;rounded=1;" parent="1" vertex="1">
                    <mxGeometry x="1539.8109010011121" y="1649.433962264151" width="84.53837597330366" height="42.76729559748428" as="geometry"/>
                </mxCell>
                <mxCell id="T-B9nDz0MbjNUT2mxpqN-274" value="205" style="text;html=1;strokeColor=none;fillColor=none;align=center;verticalAlign=middle;whiteSpace=wrap;fontSize=33;fontStyle=1;strokeWidth=4;rounded=1;" parent="1" vertex="1">
                    <mxGeometry x="1582.0800889877642" y="1709.308176100629" width="84.53837597330366" height="42.76729559748428" as="geometry"/>
                </mxCell>
                <mxCell id="T-B9nDz0MbjNUT2mxpqN-275" value="202" style="text;html=1;strokeColor=none;fillColor=none;align=center;verticalAlign=middle;whiteSpace=wrap;fontSize=33;fontStyle=1;strokeWidth=4;rounded=1;" parent="1" vertex="1">
                    <mxGeometry x="1495.4282536151277" y="1758.4905660377358" width="84.53837597330366" height="42.76729559748428" as="geometry"/>
                </mxCell>
                <mxCell id="T-B9nDz0MbjNUT2mxpqN-276" value="&lt;span style=&quot;font-weight: normal; font-size: 33px;&quot;&gt;&lt;span style=&quot;font-size: 33px;&quot;&gt;203&lt;/span&gt;&lt;/span&gt;" style="text;html=1;strokeColor=none;fillColor=none;align=center;verticalAlign=middle;whiteSpace=wrap;fontSize=33;fontStyle=1;fontColor=#FF0000;strokeWidth=4;rounded=1;" parent="1" vertex="1">
                    <mxGeometry x="1467.9532814238041" y="1814.0880503144654" width="84.53837597330366" height="42.76729559748428" as="geometry"/>
                </mxCell>
                <mxCell id="T-B9nDz0MbjNUT2mxpqN-277" value="207" style="text;html=1;strokeColor=none;fillColor=none;align=center;verticalAlign=middle;whiteSpace=wrap;fontSize=33;fontStyle=1;strokeWidth=4;rounded=1;" parent="1" vertex="1">
                    <mxGeometry x="1300.9899888765294" y="1901.7610062893082" width="84.53837597330366" height="42.76729559748428" as="geometry"/>
                </mxCell>
                <mxCell id="T-B9nDz0MbjNUT2mxpqN-278" value="213" style="text;html=1;strokeColor=none;fillColor=none;align=center;verticalAlign=middle;whiteSpace=wrap;fontSize=33;fontStyle=1;strokeWidth=4;rounded=1;" parent="1" vertex="1">
                    <mxGeometry x="1355.9399332591765" y="1925.2830188679245" width="84.53837597330366" height="42.76729559748428" as="geometry"/>
                </mxCell>
                <mxCell id="T-B9nDz0MbjNUT2mxpqN-279" value="211" style="text;html=1;strokeColor=none;fillColor=none;align=center;verticalAlign=middle;whiteSpace=wrap;fontSize=33;fontStyle=1;strokeWidth=4;rounded=1;" parent="1" vertex="1">
                    <mxGeometry x="1175.2391546162403" y="1970.188679245283" width="84.53837597330366" height="42.76729559748428" as="geometry"/>
                </mxCell>
                <mxCell id="T-B9nDz0MbjNUT2mxpqN-280" value="216" style="text;html=1;strokeColor=none;fillColor=none;align=center;verticalAlign=middle;whiteSpace=wrap;fontSize=33;fontStyle=1;strokeWidth=4;rounded=1;" parent="1" vertex="1">
                    <mxGeometry x="1455.2725250278086" y="1970.188679245283" width="84.53837597330366" height="42.76729559748428" as="geometry"/>
                </mxCell>
                <mxCell id="T-B9nDz0MbjNUT2mxpqN-281" value="209" style="text;html=1;strokeColor=none;fillColor=none;align=center;verticalAlign=middle;whiteSpace=wrap;fontSize=33;fontStyle=1;strokeWidth=4;rounded=1;" parent="1" vertex="1">
                    <mxGeometry x="1455.2725250278086" y="2104.9056603773583" width="84.53837597330366" height="42.76729559748428" as="geometry"/>
                </mxCell>
                <mxCell id="T-B9nDz0MbjNUT2mxpqN-282" value="206" style="text;html=1;strokeColor=none;fillColor=none;align=center;verticalAlign=middle;whiteSpace=wrap;fontSize=33;fontStyle=1;strokeWidth=4;rounded=1;" parent="1" vertex="1">
                    <mxGeometry x="1288.3092324805339" y="2094.2138364779876" width="84.53837597330366" height="42.76729559748428" as="geometry"/>
                </mxCell>
                <mxCell id="T-B9nDz0MbjNUT2mxpqN-283" value="" style="endArrow=none;html=1;strokeWidth=4;fontSize=33;" parent="1" edge="1">
                    <mxGeometry x="-990" y="20" width="50" height="50" as="geometry">
                        <mxPoint x="848.7096774193546" y="2023.6477987421383" as="sourcePoint"/>
                        <mxPoint x="1239.699666295884" y="1634.4654088050315" as="targetPoint"/>
                        <Array as="points">
                            <mxPoint x="1060.0556173526138" y="1858.993710691824"/>
                            <mxPoint x="1148.8209121245827" y="1809.811320754717"/>
                            <mxPoint x="1106.5517241379307" y="1745.6603773584905"/>
                            <mxPoint x="1212.2246941045605" y="1660.125786163522"/>
                        </Array>
                    </mxGeometry>
                </mxCell>
                <mxCell id="T-B9nDz0MbjNUT2mxpqN-284" value="215" style="text;html=1;strokeColor=none;fillColor=none;align=center;verticalAlign=middle;whiteSpace=wrap;fontSize=33;fontStyle=1;strokeWidth=4;rounded=1;" parent="1" vertex="1">
                    <mxGeometry x="1182.636262513904" y="1671.8867924528302" width="84.53837597330366" height="42.76729559748428" as="geometry"/>
                </mxCell>
                <mxCell id="T-B9nDz0MbjNUT2mxpqN-285" value="219" style="text;html=1;strokeColor=none;fillColor=none;align=center;verticalAlign=middle;whiteSpace=wrap;fontSize=33;fontStyle=1;strokeWidth=4;rounded=1;" parent="1" vertex="1">
                    <mxGeometry x="1117.1190211345938" y="1720" width="84.53837597330366" height="42.76729559748428" as="geometry"/>
                </mxCell>
                <mxCell id="T-B9nDz0MbjNUT2mxpqN-286" value="" style="endArrow=none;html=1;strokeWidth=4;fontSize=33;" parent="1" edge="1">
                    <mxGeometry x="-990" y="20" width="50" height="50" as="geometry">
                        <mxPoint x="1089.6440489432703" y="1844.0251572327045" as="sourcePoint"/>
                        <mxPoint x="967.0634037819798" y="1752.0754716981132" as="targetPoint"/>
                        <Array as="points">
                            <mxPoint x="1060.0556173526138" y="1773.4591194968552"/>
                            <mxPoint x="1017.786429365962" y="1752.0754716981132"/>
                        </Array>
                    </mxGeometry>
                </mxCell>
                <mxCell id="T-B9nDz0MbjNUT2mxpqN-287" value="218" style="text;html=1;strokeColor=none;fillColor=none;align=center;verticalAlign=middle;whiteSpace=wrap;fontSize=33;fontStyle=1;strokeWidth=4;rounded=1;" parent="1" vertex="1">
                    <mxGeometry x="882.5250278086762" y="1730.691823899371" width="84.53837597330366" height="42.76729559748428" as="geometry"/>
                </mxCell>
                <mxCell id="T-B9nDz0MbjNUT2mxpqN-288" value="220" style="text;html=1;strokeColor=none;fillColor=none;align=center;verticalAlign=middle;whiteSpace=wrap;fontSize=33;fontStyle=1;strokeWidth=4;rounded=1;" parent="1" vertex="1">
                    <mxGeometry x="1038.921023359288" y="1856.8553459119496" width="84.53837597330366" height="42.76729559748428" as="geometry"/>
                </mxCell>
                <mxCell id="T-B9nDz0MbjNUT2mxpqN-289" value="" style="endArrow=none;html=1;strokeWidth=4;fontSize=33;" parent="1" edge="1">
                    <mxGeometry x="-990" y="20" width="50" height="50" as="geometry">
                        <mxPoint x="986.0845383759731" y="1918.867924528302" as="sourcePoint"/>
                        <mxPoint x="901.5461624026696" y="1854.7169811320755" as="targetPoint"/>
                    </mxGeometry>
                </mxCell>
                <mxCell id="T-B9nDz0MbjNUT2mxpqN-290" value="223" style="text;html=1;strokeColor=none;fillColor=none;align=center;verticalAlign=middle;whiteSpace=wrap;fontSize=33;fontStyle=1;strokeWidth=4;rounded=1;" parent="1" vertex="1">
                    <mxGeometry x="880.4115684093435" y="1814.0880503144654" width="84.53837597330366" height="42.76729559748428" as="geometry"/>
                </mxCell>
                <mxCell id="T-B9nDz0MbjNUT2mxpqN-291" value="224" style="text;html=1;strokeColor=none;fillColor=none;align=center;verticalAlign=middle;whiteSpace=wrap;fontSize=33;fontStyle=1;strokeWidth=4;rounded=1;" parent="1" vertex="1">
                    <mxGeometry x="975.5172413793102" y="1914.5911949685535" width="84.53837597330366" height="42.76729559748428" as="geometry"/>
                </mxCell>
                <mxCell id="T-B9nDz0MbjNUT2mxpqN-292" value="225" style="text;html=1;strokeColor=none;fillColor=none;align=center;verticalAlign=middle;whiteSpace=wrap;fontSize=33;fontStyle=1;strokeWidth=4;rounded=1;" parent="1" vertex="1">
                    <mxGeometry x="922.6807563959953" y="1957.3584905660377" width="84.53837597330366" height="42.76729559748428" as="geometry"/>
                </mxCell>
                <mxCell id="T-B9nDz0MbjNUT2mxpqN-293" value="210" style="text;html=1;strokeColor=none;fillColor=none;align=center;verticalAlign=middle;whiteSpace=wrap;fontSize=33;fontStyle=1;strokeWidth=4;rounded=1;" parent="1" vertex="1">
                    <mxGeometry x="772.6251390433815" y="1997.9874213836479" width="84.53837597330366" height="42.76729559748428" as="geometry"/>
                </mxCell>
                <mxCell id="T-B9nDz0MbjNUT2mxpqN-294" value="" style="endArrow=none;html=1;strokeWidth=4;fontSize=33;" parent="1" edge="1">
                    <mxGeometry x="-990" y="20" width="50" height="50" as="geometry">
                        <mxPoint x="848.7096774193546" y="2021.5094339622642" as="sourcePoint"/>
                        <mxPoint x="1125.572858731924" y="2081.383647798742" as="targetPoint"/>
                        <Array as="points">
                            <mxPoint x="1017.786429365962" y="2094.2138364779876"/>
                        </Array>
                    </mxGeometry>
                </mxCell>
                <mxCell id="T-B9nDz0MbjNUT2mxpqN-295" value="221" style="text;html=1;strokeColor=none;fillColor=none;align=center;verticalAlign=middle;whiteSpace=wrap;fontSize=33;fontStyle=1;strokeWidth=4;rounded=1;" parent="1" vertex="1">
                    <mxGeometry x="979.7441601779753" y="2040.7547169811323" width="84.53837597330366" height="42.76729559748428" as="geometry"/>
                </mxCell>
                <mxCell id="T-B9nDz0MbjNUT2mxpqN-296" value="&lt;span style=&quot;font-size: 33px;&quot;&gt;&lt;span style=&quot;font-size: 33px;&quot;&gt;222&lt;/span&gt;&lt;/span&gt;" style="text;html=1;strokeColor=none;fillColor=none;align=center;verticalAlign=middle;whiteSpace=wrap;fontSize=33;fontStyle=0;fontColor=#FF0000;strokeWidth=4;rounded=1;" parent="1" vertex="1">
                    <mxGeometry x="895.2057842046718" y="2068.553459119497" width="84.53837597330366" height="42.76729559748428" as="geometry"/>
                </mxCell>
                <mxCell id="T-B9nDz0MbjNUT2mxpqN-297" value="&lt;span style=&quot;font-size: 33px;&quot;&gt;&lt;span style=&quot;font-size: 33px;&quot;&gt;226&lt;/span&gt;&lt;/span&gt;" style="text;html=1;strokeColor=none;fillColor=none;align=center;verticalAlign=middle;whiteSpace=wrap;fontSize=33;fontStyle=0;fontColor=#FF0000;strokeWidth=4;rounded=1;" parent="1" vertex="1">
                    <mxGeometry x="1117.1190211345938" y="2062.138364779874" width="84.53837597330366" height="42.76729559748428" as="geometry"/>
                </mxCell>
                <mxCell id="T-B9nDz0MbjNUT2mxpqN-300" value="151" style="text;html=1;strokeColor=none;fillColor=none;align=center;verticalAlign=middle;whiteSpace=wrap;fontSize=33;fontStyle=1;strokeWidth=4;rounded=1;" parent="1" vertex="1">
                    <mxGeometry x="87.86429365962181" y="911.6981132075472" width="84.53837597330366" height="42.76729559748428" as="geometry"/>
                </mxCell>
                <mxCell id="T-B9nDz0MbjNUT2mxpqN-301" value="152" style="text;html=1;strokeColor=none;fillColor=none;align=center;verticalAlign=middle;whiteSpace=wrap;fontSize=33;fontStyle=1;strokeWidth=4;rounded=1;" parent="1" vertex="1">
                    <mxGeometry x="89.97775305895425" y="1042.1383647798743" width="84.53837597330366" height="42.76729559748428" as="geometry"/>
                </mxCell>
                <mxCell id="T-B9nDz0MbjNUT2mxpqN-305" value="208" style="text;html=1;strokeColor=none;fillColor=none;align=center;verticalAlign=middle;whiteSpace=wrap;fontSize=33;fontStyle=1;strokeWidth=4;rounded=1;" parent="1" vertex="1">
                    <mxGeometry x="28.687430478309125" y="1365.0314465408806" width="84.53837597330366" height="42.76729559748428" as="geometry"/>
                </mxCell>
                <mxCell id="T-B9nDz0MbjNUT2mxpqN-306" value="" style="endArrow=none;html=1;strokeWidth=4;fontSize=33;" parent="1" edge="1">
                    <mxGeometry x="-990" y="20" width="50" height="50" as="geometry">
                        <mxPoint x="-144.61624026696336" y="1431.3207547169811" as="sourcePoint"/>
                        <mxPoint x="73.07007786429358" y="1469.811320754717" as="targetPoint"/>
                        <Array as="points">
                            <mxPoint x="3.325917686318121" y="1452.7044025157234"/>
                        </Array>
                    </mxGeometry>
                </mxCell>
                <mxCell id="T-B9nDz0MbjNUT2mxpqN-307" value="&lt;span style=&quot;font-size: 33px;&quot;&gt;&lt;span style=&quot;font-size: 33px;&quot;&gt;251&lt;/span&gt;&lt;/span&gt;" style="text;html=1;strokeColor=none;fillColor=none;align=center;verticalAlign=middle;whiteSpace=wrap;fontSize=33;fontStyle=0;fontColor=#FF0000;strokeWidth=4;rounded=1;" parent="1" vertex="1">
                    <mxGeometry x="-87.55283648498335" y="1394.9685534591194" width="84.53837597330366" height="42.76729559748428" as="geometry"/>
                </mxCell>
                <mxCell id="T-B9nDz0MbjNUT2mxpqN-308" value="&lt;span style=&quot;font-size: 33px;&quot;&gt;&lt;span style=&quot;font-size: 33px;&quot;&gt;145&lt;/span&gt;&lt;/span&gt;" style="text;html=1;strokeColor=none;fillColor=none;align=center;verticalAlign=middle;whiteSpace=wrap;fontSize=33;fontStyle=0;fontColor=#FF0000;strokeWidth=4;rounded=1;" parent="1" vertex="1">
                    <mxGeometry x="-224.92769744160182" y="1382.9509433962264" width="84.53837597330366" height="42.76729559748428" as="geometry"/>
                </mxCell>
                <mxCell id="T-B9nDz0MbjNUT2mxpqN-309" value="161" style="text;html=1;strokeColor=none;fillColor=none;align=center;verticalAlign=middle;whiteSpace=wrap;fontSize=33;fontStyle=1;strokeWidth=4;rounded=1;" parent="1" vertex="1">
                    <mxGeometry x="-68.53170189099" y="1452.7044025157234" width="84.53837597330366" height="42.76729559748428" as="geometry"/>
                </mxCell>
                <mxCell id="T-B9nDz0MbjNUT2mxpqN-310" value="" style="endArrow=none;html=1;strokeWidth=4;fontSize=33;" parent="1" edge="1">
                    <mxGeometry x="-990" y="20" width="50" height="50" as="geometry">
                        <mxPoint x="9.6662958843159" y="1578.867924528302" as="sourcePoint"/>
                        <mxPoint x="-218.58731924360404" y="1536.1006289308175" as="targetPoint"/>
                        <Array as="points">
                            <mxPoint x="-32.602892102336" y="1557.4842767295597"/>
                            <mxPoint x="-117.14126807563969" y="1621.6352201257862"/>
                        </Array>
                    </mxGeometry>
                </mxCell>
                <mxCell id="T-B9nDz0MbjNUT2mxpqN-312" value="4204" style="text;html=1;strokeColor=none;fillColor=none;align=center;verticalAlign=middle;whiteSpace=wrap;fontSize=33;fontStyle=1;strokeWidth=4;rounded=1;" parent="1" vertex="1">
                    <mxGeometry x="-115.02780867630702" y="1525.8150943396226" width="84.53837597330366" height="42.76729559748428" as="geometry"/>
                </mxCell>
                <mxCell id="T-B9nDz0MbjNUT2mxpqN-313" value="4206" style="text;html=1;strokeColor=none;fillColor=none;align=center;verticalAlign=middle;whiteSpace=wrap;fontSize=33;fontStyle=1;strokeWidth=4;rounded=1;" parent="1" vertex="1">
                    <mxGeometry x="-277.7641824249166" y="1495.4716981132076" width="84.53837597330366" height="42.76729559748428" as="geometry"/>
                </mxCell>
                <mxCell id="T-B9nDz0MbjNUT2mxpqN-314" value="125" style="text;html=1;strokeColor=none;fillColor=none;align=center;verticalAlign=middle;whiteSpace=wrap;fontSize=33;fontStyle=1;strokeWidth=4;rounded=1;" parent="1" vertex="1">
                    <mxGeometry x="-229.15461624026705" y="1702.8930817610062" width="84.53837597330366" height="42.76729559748428" as="geometry"/>
                </mxCell>
                <mxCell id="T-B9nDz0MbjNUT2mxpqN-315" value="4196" style="text;html=1;strokeColor=none;fillColor=none;align=center;verticalAlign=middle;whiteSpace=wrap;fontSize=33;fontStyle=1;strokeWidth=4;rounded=1;" parent="1" vertex="1">
                    <mxGeometry x="16.006674082313566" y="1551.0691823899372" width="84.53837597330366" height="42.76729559748428" as="geometry"/>
                </mxCell>
                <mxCell id="T-B9nDz0MbjNUT2mxpqN-317" value="" style="endArrow=none;html=1;strokeWidth=4;fontSize=33;" parent="1" edge="1">
                    <mxGeometry x="-990" y="20" width="50" height="50" as="geometry">
                        <mxPoint x="-400.344827586207" y="1606.6666666666667" as="sourcePoint"/>
                        <mxPoint x="-322.14682981090107" y="1717.8616352201257" as="targetPoint"/>
                        <Array as="points">
                            <mxPoint x="-421.47942157953287" y="1666.5408805031445"/>
                            <mxPoint x="-315.8064516129033" y="1687.9245283018868"/>
                        </Array>
                    </mxGeometry>
                </mxCell>
                <mxCell id="T-B9nDz0MbjNUT2mxpqN-318" value="" style="endArrow=none;html=1;strokeWidth=4;fontSize=33;" parent="1" edge="1">
                    <mxGeometry x="-990" y="20" width="50" height="50" as="geometry">
                        <mxPoint x="-569.4215795328143" y="1858.993710691824" as="sourcePoint"/>
                        <mxPoint x="-387.6640711902114" y="1773.4591194968552" as="targetPoint"/>
                        <Array as="points">
                            <mxPoint x="-440.5005561735262" y="1773.4591194968552"/>
                        </Array>
                    </mxGeometry>
                </mxCell>
                <mxCell id="T-B9nDz0MbjNUT2mxpqN-319" value="" style="endArrow=none;html=1;strokeWidth=4;fontSize=33;" parent="1" edge="1">
                    <mxGeometry x="-990" y="20" width="50" height="50" as="geometry">
                        <mxPoint x="-514.4716351501669" y="1826.9182389937107" as="sourcePoint"/>
                        <mxPoint x="-567.3081201334817" y="1773.4591194968552" as="targetPoint"/>
                    </mxGeometry>
                </mxCell>
                <mxCell id="T-B9nDz0MbjNUT2mxpqN-320" value="124" style="text;html=1;strokeColor=none;fillColor=none;align=center;verticalAlign=middle;whiteSpace=wrap;fontSize=33;fontStyle=1;strokeWidth=4;rounded=1;" parent="1" vertex="1">
                    <mxGeometry x="-444.7274749721913" y="1570.314465408805" width="84.53837597330366" height="42.76729559748428" as="geometry"/>
                </mxCell>
                <mxCell id="T-B9nDz0MbjNUT2mxpqN-321" value="126" style="text;html=1;strokeColor=none;fillColor=none;align=center;verticalAlign=middle;whiteSpace=wrap;fontSize=33;fontStyle=1;strokeWidth=4;rounded=1;" parent="1" vertex="1">
                    <mxGeometry x="-440.5005561735262" y="1694.3396226415093" width="84.53837597330366" height="42.76729559748428" as="geometry"/>
                </mxCell>
                <mxCell id="T-B9nDz0MbjNUT2mxpqN-322" value="127" style="text;html=1;strokeColor=none;fillColor=none;align=center;verticalAlign=middle;whiteSpace=wrap;fontSize=33;fontStyle=1;strokeWidth=4;rounded=1;" parent="1" vertex="1">
                    <mxGeometry x="-476.4293659621802" y="1730.691823899371" width="84.53837597330366" height="42.76729559748428" as="geometry"/>
                </mxCell>
                <mxCell id="T-B9nDz0MbjNUT2mxpqN-323" value="38" style="text;html=1;strokeColor=none;fillColor=none;align=center;verticalAlign=middle;whiteSpace=wrap;fontSize=33;fontStyle=1;strokeWidth=4;rounded=1;" parent="1" vertex="1">
                    <mxGeometry x="-546.1735261401557" y="1758.4905660377358" width="84.53837597330366" height="42.76729559748428" as="geometry"/>
                </mxCell>
                <mxCell id="T-B9nDz0MbjNUT2mxpqN-324" value="39" style="text;html=1;strokeColor=none;fillColor=none;align=center;verticalAlign=middle;whiteSpace=wrap;fontSize=33;fontStyle=1;strokeWidth=4;rounded=1;" parent="1" vertex="1">
                    <mxGeometry x="-630.7119021134595" y="1745.6603773584905" width="84.53837597330366" height="42.76729559748428" as="geometry"/>
                </mxCell>
                <mxCell id="T-B9nDz0MbjNUT2mxpqN-325" value="121" style="text;html=1;strokeColor=none;fillColor=none;align=center;verticalAlign=middle;whiteSpace=wrap;fontSize=33;fontStyle=1;strokeWidth=4;rounded=1;" parent="1" vertex="1">
                    <mxGeometry x="-641.2791991101224" y="1829.0566037735848" width="84.53837597330366" height="42.76729559748428" as="geometry"/>
                </mxCell>
                <mxCell id="T-B9nDz0MbjNUT2mxpqN-326" value="123" style="text;html=1;strokeColor=none;fillColor=none;align=center;verticalAlign=middle;whiteSpace=wrap;fontSize=33;fontStyle=1;strokeWidth=4;rounded=1;" parent="1" vertex="1">
                    <mxGeometry x="-423.5928809788654" y="1817.5522012578617" width="84.53837597330366" height="42.76729559748428" as="geometry"/>
                </mxCell>
                <mxCell id="T-B9nDz0MbjNUT2mxpqN-327" value="122" style="text;html=1;strokeColor=none;fillColor=none;align=center;verticalAlign=middle;whiteSpace=wrap;fontSize=33;fontStyle=1;strokeWidth=4;rounded=1;" parent="1" vertex="1">
                    <mxGeometry x="-478.5428253615128" y="1987.2955974842766" width="84.53837597330366" height="42.76729559748428" as="geometry"/>
                </mxCell>
                <mxCell id="T-B9nDz0MbjNUT2mxpqN-329" value="" style="endArrow=none;html=1;strokeWidth=4;fontSize=33;" parent="1" edge="1">
                    <mxGeometry x="-990" y="20" width="50" height="50" as="geometry">
                        <mxPoint x="-734.2714126807564" y="2042.8930817610062" as="sourcePoint"/>
                        <mxPoint x="-622.258064516129" y="2053.5849056603774" as="targetPoint"/>
                    </mxGeometry>
                </mxCell>
                <mxCell id="T-B9nDz0MbjNUT2mxpqN-330" value="118" style="text;html=1;strokeColor=none;fillColor=none;align=center;verticalAlign=middle;whiteSpace=wrap;fontSize=33;fontStyle=1;strokeWidth=4;rounded=1;" parent="1" vertex="1">
                    <mxGeometry x="-820.9232480533926" y="2012.9559748427673" width="84.53837597330366" height="42.76729559748428" as="geometry"/>
                </mxCell>
                <mxCell id="T-B9nDz0MbjNUT2mxpqN-331" value="116" style="text;html=1;strokeColor=none;fillColor=none;align=center;verticalAlign=middle;whiteSpace=wrap;fontSize=33;fontStyle=1;strokeWidth=4;rounded=1;" parent="1" vertex="1">
                    <mxGeometry x="-601.1234705228031" y="2068.553459119497" width="84.53837597330366" height="42.76729559748428" as="geometry"/>
                </mxCell>
                <mxCell id="T-B9nDz0MbjNUT2mxpqN-332" value="115" style="text;html=1;strokeColor=none;fillColor=none;align=center;verticalAlign=middle;whiteSpace=wrap;fontSize=33;fontStyle=1;strokeWidth=4;rounded=1;" parent="1" vertex="1">
                    <mxGeometry x="-601.1234705228031" y="2149.811320754717" width="84.53837597330366" height="42.76729559748428" as="geometry"/>
                </mxCell>
                <mxCell id="T-B9nDz0MbjNUT2mxpqN-333" value="113" style="text;html=1;strokeColor=none;fillColor=none;align=center;verticalAlign=middle;whiteSpace=wrap;fontSize=33;fontStyle=1;strokeWidth=4;rounded=1;" parent="1" vertex="1">
                    <mxGeometry x="-660.3003337041157" y="2222.51572327044" width="84.53837597330366" height="42.76729559748428" as="geometry"/>
                </mxCell>
                <mxCell id="T-B9nDz0MbjNUT2mxpqN-334" value="" style="endArrow=none;html=1;strokeWidth=4;fontSize=33;" parent="1" edge="1">
                    <mxGeometry x="-990" y="20" width="50" height="50" as="geometry">
                        <mxPoint x="-579.9888765294772" y="2327.2955974842766" as="sourcePoint"/>
                        <mxPoint x="-157.29699666295892" y="2305.9119496855346" as="targetPoint"/>
                        <Array as="points">
                            <mxPoint x="-347.5083426028922" y="2391.446540880503"/>
                            <mxPoint x="-262.9699666295885" y="2284.5283018867926"/>
                        </Array>
                    </mxGeometry>
                </mxCell>
                <mxCell id="T-B9nDz0MbjNUT2mxpqN-336" value="" style="endArrow=none;html=1;strokeWidth=4;fontSize=33;" parent="1" edge="1">
                    <mxGeometry x="-990" y="20" width="50" height="50" as="geometry">
                        <mxPoint x="-527.1523915461624" y="2342.264150943396" as="sourcePoint"/>
                        <mxPoint x="-480.65628476084544" y="2256.7295597484276" as="targetPoint"/>
                    </mxGeometry>
                </mxCell>
                <mxCell id="T-B9nDz0MbjNUT2mxpqN-337" value="114" style="text;html=1;strokeColor=none;fillColor=none;align=center;verticalAlign=middle;whiteSpace=wrap;fontSize=33;fontStyle=1;strokeWidth=4;rounded=1;" parent="1" vertex="1">
                    <mxGeometry x="-491.2235817575084" y="2222.51572327044" width="84.53837597330366" height="42.76729559748428" as="geometry"/>
                </mxCell>
                <mxCell id="T-B9nDz0MbjNUT2mxpqN-338" value="107" style="text;html=1;strokeColor=none;fillColor=none;align=center;verticalAlign=middle;whiteSpace=wrap;fontSize=33;fontStyle=1;strokeWidth=4;rounded=1;" parent="1" vertex="1">
                    <mxGeometry x="-444.7274749721913" y="2391.446540880503" width="84.53837597330366" height="42.76729559748428" as="geometry"/>
                </mxCell>
                <mxCell id="T-B9nDz0MbjNUT2mxpqN-339" value="105" style="text;html=1;strokeColor=none;fillColor=none;align=center;verticalAlign=middle;whiteSpace=wrap;fontSize=33;fontStyle=1;strokeWidth=4;rounded=1;" parent="1" vertex="1">
                    <mxGeometry x="-592.6696329254728" y="2348.6792452830186" width="84.53837597330366" height="42.76729559748428" as="geometry"/>
                </mxCell>
                <mxCell id="T-B9nDz0MbjNUT2mxpqN-340" value="102" style="text;html=1;strokeColor=none;fillColor=none;align=center;verticalAlign=middle;whiteSpace=wrap;fontSize=33;fontStyle=1;strokeWidth=4;rounded=1;" parent="1" vertex="1">
                    <mxGeometry x="-601.1234705228031" y="2391.446540880503" width="84.53837597330366" height="42.76729559748428" as="geometry"/>
                </mxCell>
                <mxCell id="T-B9nDz0MbjNUT2mxpqN-341" value="110" style="text;html=1;strokeColor=none;fillColor=none;align=center;verticalAlign=middle;whiteSpace=wrap;fontSize=33;fontStyle=1;strokeWidth=4;rounded=1;" parent="1" vertex="1">
                    <mxGeometry x="-666.6407119021135" y="2314.4654088050315" width="84.53837597330366" height="42.76729559748428" as="geometry"/>
                </mxCell>
                <mxCell id="T-B9nDz0MbjNUT2mxpqN-342" value="109" style="text;html=1;strokeColor=none;fillColor=none;align=center;verticalAlign=middle;whiteSpace=wrap;fontSize=33;fontStyle=1;strokeWidth=4;rounded=1;" parent="1" vertex="1">
                    <mxGeometry x="-725.817575083426" y="2296.5459119496854" width="84.53837597330366" height="42.76729559748428" as="geometry"/>
                </mxCell>
                <mxCell id="T-B9nDz0MbjNUT2mxpqN-343" value="" style="endArrow=none;html=1;strokeWidth=4;fontSize=33;" parent="1" edge="1">
                    <mxGeometry x="-990" y="20" width="50" height="50" as="geometry">
                        <mxPoint x="-916.0289210233593" y="2496.2264150943397" as="sourcePoint"/>
                        <mxPoint x="-687.7753058954394" y="2284.5283018867926" as="targetPoint"/>
                        <Array as="points">
                            <mxPoint x="-778.6540600667408" y="2254.5911949685533"/>
                        </Array>
                    </mxGeometry>
                </mxCell>
                <mxCell id="T-B9nDz0MbjNUT2mxpqN-344" value="106" style="text;html=1;strokeColor=none;fillColor=none;align=center;verticalAlign=middle;whiteSpace=wrap;fontSize=33;fontStyle=1;strokeWidth=4;rounded=1;" parent="1" vertex="1">
                    <mxGeometry x="-789.2213570634037" y="2271.698113207547" width="84.53837597330366" height="42.76729559748428" as="geometry"/>
                </mxCell>
                <mxCell id="T-B9nDz0MbjNUT2mxpqN-345" value="112" style="text;html=1;strokeColor=none;fillColor=none;align=center;verticalAlign=middle;whiteSpace=wrap;fontSize=33;fontStyle=1;strokeWidth=4;rounded=1;" parent="1" vertex="1">
                    <mxGeometry x="-854.7385984427142" y="2213.962264150943" width="84.53837597330366" height="42.76729559748428" as="geometry"/>
                </mxCell>
                <mxCell id="T-B9nDz0MbjNUT2mxpqN-346" value="108" style="text;html=1;strokeColor=none;fillColor=none;align=center;verticalAlign=middle;whiteSpace=wrap;fontSize=33;fontStyle=1;strokeWidth=4;rounded=1;" parent="1" vertex="1">
                    <mxGeometry x="-920.2558398220244" y="2323.0188679245284" width="84.53837597330366" height="42.76729559748428" as="geometry"/>
                </mxCell>
                <mxCell id="T-B9nDz0MbjNUT2mxpqN-347" value="" style="endArrow=none;html=1;strokeWidth=4;fontSize=33;" parent="1" edge="1">
                    <mxGeometry x="-990" y="20" width="50" height="50" as="geometry">
                        <mxPoint x="-844.1713014460512" y="2553.962264150943" as="sourcePoint"/>
                        <mxPoint x="-632.825361512792" y="2447.0440251572327" as="targetPoint"/>
                        <Array as="points">
                            <mxPoint x="-759.6329254727475" y="2404.276729559748"/>
                        </Array>
                    </mxGeometry>
                </mxCell>
                <mxCell id="T-B9nDz0MbjNUT2mxpqN-348" value="" style="endArrow=none;html=1;strokeWidth=4;fontSize=33;" parent="1" edge="1">
                    <mxGeometry x="-990" y="20" width="50" height="50" as="geometry">
                        <mxPoint x="-867.4193548387098" y="2654.4654088050315" as="sourcePoint"/>
                        <mxPoint x="-753.2925472747497" y="2684.4025157232704" as="targetPoint"/>
                    </mxGeometry>
                </mxCell>
                <mxCell id="T-B9nDz0MbjNUT2mxpqN-349" value="104" style="text;html=1;strokeColor=none;fillColor=none;align=center;verticalAlign=middle;whiteSpace=wrap;fontSize=33;fontStyle=1;strokeWidth=4;rounded=1;" parent="1" vertex="1">
                    <mxGeometry x="-736.384872080089" y="2434.2138364779876" width="84.53837597330366" height="42.76729559748428" as="geometry"/>
                </mxCell>
                <mxCell id="T-B9nDz0MbjNUT2mxpqN-350" value="111" style="text;html=1;strokeColor=none;fillColor=none;align=center;verticalAlign=middle;whiteSpace=wrap;fontSize=33;fontStyle=1;strokeWidth=4;rounded=1;" parent="1" vertex="1">
                    <mxGeometry x="-877.9866518353726" y="2545.4088050314467" width="84.53837597330366" height="42.76729559748428" as="geometry"/>
                </mxCell>
                <mxCell id="T-B9nDz0MbjNUT2mxpqN-351" value="117" style="text;html=1;strokeColor=none;fillColor=none;align=center;verticalAlign=middle;whiteSpace=wrap;fontSize=33;fontStyle=1;strokeWidth=4;rounded=1;" parent="1" vertex="1">
                    <mxGeometry x="-687.7753058954394" y="2530.440251572327" width="84.53837597330366" height="42.76729559748428" as="geometry"/>
                </mxCell>
                <mxCell id="T-B9nDz0MbjNUT2mxpqN-352" value="103" style="text;html=1;strokeColor=none;fillColor=none;align=center;verticalAlign=middle;whiteSpace=wrap;fontSize=33;fontStyle=1;strokeWidth=4;rounded=1;" parent="1" vertex="1">
                    <mxGeometry x="-753.2925472747497" y="2648.050314465409" width="84.53837597330366" height="42.76729559748428" as="geometry"/>
                </mxCell>
                <mxCell id="T-B9nDz0MbjNUT2mxpqN-354" value="101" style="text;html=1;strokeColor=none;fillColor=none;align=center;verticalAlign=middle;whiteSpace=wrap;fontSize=33;fontStyle=1;strokeWidth=4;rounded=1;" parent="1" vertex="1">
                    <mxGeometry x="-704.6829810901002" y="2697.2327044025155" width="84.53837597330366" height="42.76729559748428" as="geometry"/>
                </mxCell>
                <mxCell id="T-B9nDz0MbjNUT2mxpqN-355" value="119" style="text;html=1;strokeColor=none;fillColor=none;align=center;verticalAlign=middle;whiteSpace=wrap;fontSize=33;fontStyle=1;strokeWidth=4;rounded=1;" parent="1" vertex="1">
                    <mxGeometry x="-765.9733036707453" y="2370.062893081761" width="84.53837597330366" height="42.76729559748428" as="geometry"/>
                </mxCell>
                <mxCell id="T-B9nDz0MbjNUT2mxpqN-356" value="4108" style="text;html=1;strokeColor=none;fillColor=none;align=center;verticalAlign=middle;whiteSpace=wrap;fontSize=33;fontStyle=1;strokeWidth=4;rounded=1;" parent="1" vertex="1">
                    <mxGeometry x="-153.0700778642937" y="2280.251572327044" width="84.53837597330366" height="42.76729559748428" as="geometry"/>
                </mxCell>
                <mxCell id="T-B9nDz0MbjNUT2mxpqN-357" value="" style="endArrow=none;html=1;strokeWidth=4;fontSize=33;" parent="1" edge="1">
                    <mxGeometry x="-990" y="20" width="50" height="50" as="geometry">
                        <mxPoint x="-305.2391546162403" y="1935.9748427672955" as="sourcePoint"/>
                        <mxPoint x="292.8698553948832" y="1335.0943396226414" as="targetPoint"/>
                        <Array as="points">
                            <mxPoint x="-250.28921023359294" y="1837.6100628930817"/>
                            <mxPoint x="-38.94327030033378" y="1752.0754716981132"/>
                            <mxPoint x="87.86429365962181" y="1666.5408805031445"/>
                        </Array>
                    </mxGeometry>
                </mxCell>
                <mxCell id="T-B9nDz0MbjNUT2mxpqN-359" value="" style="endArrow=none;html=1;strokeWidth=4;fontSize=33;" parent="1" edge="1">
                    <mxGeometry x="-990" y="20" width="50" height="50" as="geometry">
                        <mxPoint x="-13.581757508342662" y="1730.691823899371" as="sourcePoint"/>
                        <mxPoint x="-51.62402669632934" y="1670.817610062893" as="targetPoint"/>
                    </mxGeometry>
                </mxCell>
                <mxCell id="T-B9nDz0MbjNUT2mxpqN-361" value="" style="endArrow=none;html=1;strokeWidth=4;fontSize=33;" parent="1" edge="1">
                    <mxGeometry x="-990" y="20" width="50" height="50" as="geometry">
                        <mxPoint x="-307.35261401557295" y="1938.1132075471698" as="sourcePoint"/>
                        <mxPoint x="-178.4315906562848" y="1955.2201257861634" as="targetPoint"/>
                    </mxGeometry>
                </mxCell>
                <mxCell id="T-B9nDz0MbjNUT2mxpqN-362" value="128" style="text;html=1;strokeColor=none;fillColor=none;align=center;verticalAlign=middle;whiteSpace=wrap;fontSize=33;fontStyle=1;strokeWidth=4;rounded=1;" parent="1" vertex="1">
                    <mxGeometry x="-286.21802002224695" y="1878.2389937106918" width="84.53837597330366" height="42.76729559748428" as="geometry"/>
                </mxCell>
                <mxCell id="T-B9nDz0MbjNUT2mxpqN-364" value="136-137" style="text;html=1;strokeColor=none;fillColor=none;align=center;verticalAlign=middle;whiteSpace=wrap;fontSize=33;fontStyle=1;strokeWidth=4;rounded=1;" parent="1" vertex="1">
                    <mxGeometry x="-243.94883203559516" y="1957.3584905660377" width="169.07675194660732" height="42.76729559748428" as="geometry"/>
                </mxCell>
                <mxCell id="T-B9nDz0MbjNUT2mxpqN-365" value="" style="endArrow=none;html=1;strokeWidth=4;fontSize=33;" parent="1" edge="1">
                    <mxGeometry x="-990" y="20" width="50" height="50" as="geometry">
                        <mxPoint x="290.7563959955505" y="1335.0943396226414" as="sourcePoint"/>
                        <mxPoint x="311.8909899888765" y="1347.9245283018868" as="targetPoint"/>
                        <Array as="points"/>
                    </mxGeometry>
                </mxCell>
                <mxCell id="T-B9nDz0MbjNUT2mxpqN-366" value="" style="endArrow=none;html=1;strokeWidth=4;fontSize=33;" parent="1" edge="1">
                    <mxGeometry x="-990" y="20" width="50" height="50" as="geometry">
                        <mxPoint x="404.88320355951055" y="1437.7358490566037" as="sourcePoint"/>
                        <mxPoint x="309.77753058954386" y="1343.6477987421383" as="targetPoint"/>
                        <Array as="points">
                            <mxPoint x="256.94104560622895" y="1420.6289308176101"/>
                        </Array>
                    </mxGeometry>
                </mxCell>
                <mxCell id="T-B9nDz0MbjNUT2mxpqN-367" value="143" style="text;html=1;strokeColor=none;fillColor=none;align=center;verticalAlign=middle;whiteSpace=wrap;fontSize=33;fontStyle=1;strokeWidth=4;rounded=1;" parent="1" vertex="1">
                    <mxGeometry x="288.64293659621785" y="1382.138364779874" width="84.53837597330366" height="42.76729559748428" as="geometry"/>
                </mxCell>
                <mxCell id="T-B9nDz0MbjNUT2mxpqN-368" value="146" style="text;html=1;strokeColor=none;fillColor=none;align=center;verticalAlign=middle;whiteSpace=wrap;fontSize=33;fontStyle=1;strokeWidth=4;rounded=1;" parent="1" vertex="1">
                    <mxGeometry x="387.97552836484965" y="1435.5974842767296" width="84.53837597330366" height="42.76729559748428" as="geometry"/>
                </mxCell>
                <mxCell id="T-B9nDz0MbjNUT2mxpqN-369" value="169" style="text;html=1;strokeColor=none;fillColor=none;align=center;verticalAlign=middle;whiteSpace=wrap;fontSize=33;fontStyle=1;strokeWidth=4;rounded=1;" parent="1" vertex="1">
                    <mxGeometry x="172.40266963292538" y="1501.8867924528302" width="84.53837597330366" height="42.76729559748428" as="geometry"/>
                </mxCell>
                <mxCell id="T-B9nDz0MbjNUT2mxpqN-370" value="" style="endArrow=none;html=1;strokeWidth=4;fontSize=33;" parent="1" edge="1">
                    <mxGeometry x="-990" y="20" width="50" height="50" as="geometry">
                        <mxPoint x="18.120133481646235" y="2007.3962264150944" as="sourcePoint"/>
                        <mxPoint x="153.38153503893204" y="1557.4842767295597" as="targetPoint"/>
                        <Array as="points">
                            <mxPoint x="128.02002224694093" y="1796.9811320754716"/>
                            <mxPoint x="233.6929922135705" y="1621.6352201257862"/>
                            <mxPoint x="208.3314794215794" y="1600.251572327044"/>
                            <mxPoint x="166.0622914349276" y="1621.6352201257862"/>
                        </Array>
                    </mxGeometry>
                </mxCell>
                <mxCell id="T-B9nDz0MbjNUT2mxpqN-371" value="" style="endArrow=none;html=1;strokeWidth=4;fontSize=33;" parent="1" edge="1">
                    <mxGeometry x="-990" y="20" width="50" height="50" as="geometry">
                        <mxPoint x="227.35261401557273" y="1615.2201257861634" as="sourcePoint"/>
                        <mxPoint x="303.4371523915461" y="1608.8050314465409" as="targetPoint"/>
                    </mxGeometry>
                </mxCell>
                <mxCell id="T-B9nDz0MbjNUT2mxpqN-372" value="129" style="text;html=1;strokeColor=none;fillColor=none;align=center;verticalAlign=middle;whiteSpace=wrap;fontSize=33;fontStyle=1;strokeWidth=4;rounded=1;" parent="1" vertex="1">
                    <mxGeometry x="119.5661846496107" y="1613.0817610062893" width="84.53837597330366" height="42.76729559748428" as="geometry"/>
                </mxCell>
                <mxCell id="T-B9nDz0MbjNUT2mxpqN-373" value="138" style="text;html=1;strokeColor=none;fillColor=none;align=center;verticalAlign=middle;whiteSpace=wrap;fontSize=33;fontStyle=1;strokeWidth=4;rounded=1;" parent="1" vertex="1">
                    <mxGeometry x="303.4371523915461" y="1595.9748427672955" width="84.53837597330366" height="42.76729559748428" as="geometry"/>
                </mxCell>
                <mxCell id="T-B9nDz0MbjNUT2mxpqN-374" value="250" style="text;html=1;strokeColor=none;fillColor=none;align=center;verticalAlign=middle;whiteSpace=wrap;fontSize=33;fontStyle=1;strokeWidth=4;rounded=1;" parent="1" vertex="1">
                    <mxGeometry x="47.70856507230246" y="1764.9056603773586" width="84.53837597330366" height="42.76729559748428" as="geometry"/>
                </mxCell>
                <mxCell id="T-B9nDz0MbjNUT2mxpqN-375" value="249" style="text;html=1;strokeColor=none;fillColor=none;align=center;verticalAlign=middle;whiteSpace=wrap;fontSize=33;fontStyle=1;strokeWidth=4;rounded=1;" parent="1" vertex="1">
                    <mxGeometry x="-30.489432703003445" y="1914.5911949685535" width="84.53837597330366" height="42.76729559748428" as="geometry"/>
                </mxCell>
                <mxCell id="T-B9nDz0MbjNUT2mxpqN-376" value="131" style="text;html=1;strokeColor=none;fillColor=none;align=center;verticalAlign=middle;whiteSpace=wrap;fontSize=33;fontStyle=1;strokeWidth=4;rounded=1;" parent="1" vertex="1">
                    <mxGeometry x="92.09121245828692" y="1841.480503144654" width="84.53837597330366" height="42.76729559748428" as="geometry"/>
                </mxCell>
                <mxCell id="T-B9nDz0MbjNUT2mxpqN-378" value="134" style="text;html=1;strokeColor=none;fillColor=none;align=center;verticalAlign=middle;whiteSpace=wrap;fontSize=33;fontStyle=1;strokeWidth=4;rounded=1;" parent="1" vertex="1">
                    <mxGeometry x="54.04894327030024" y="1914.5911949685535" width="84.53837597330366" height="42.76729559748428" as="geometry"/>
                </mxCell>
                <mxCell id="T-B9nDz0MbjNUT2mxpqN-379" value="130" style="text;html=1;strokeColor=none;fillColor=none;align=center;verticalAlign=middle;whiteSpace=wrap;fontSize=33;fontStyle=1;strokeWidth=4;rounded=1;" parent="1" vertex="1">
                    <mxGeometry x="20.23359288097879" y="1997.9874213836479" width="84.53837597330366" height="42.76729559748428" as="geometry"/>
                </mxCell>
                <mxCell id="T-B9nDz0MbjNUT2mxpqN-381" value="" style="endArrow=none;html=1;strokeWidth=4;fontSize=33;" parent="1" edge="1">
                    <mxGeometry x="-990" y="20" width="50" height="50" as="geometry">
                        <mxPoint x="147.04115684093426" y="1767.0440251572327" as="sourcePoint"/>
                        <mxPoint x="519.0100111234703" y="2111.320754716981" as="targetPoint"/>
                        <Array as="points">
                            <mxPoint x="402.7697441601779" y="1816.2264150943397"/>
                            <mxPoint x="445.03893214682967" y="1782.0125786163521"/>
                            <mxPoint x="550.7119021134592" y="1803.3962264150944"/>
                            <mxPoint x="550.7119021134592" y="1880.377358490566"/>
                        </Array>
                    </mxGeometry>
                </mxCell>
                <mxCell id="T-B9nDz0MbjNUT2mxpqN-382" value="" style="endArrow=none;html=1;strokeWidth=4;fontSize=33;" parent="1" edge="1">
                    <mxGeometry x="-990" y="20" width="50" height="50" as="geometry">
                        <mxPoint x="286.5294771968854" y="1948.8050314465409" as="sourcePoint"/>
                        <mxPoint x="320.34482758620675" y="1796.9811320754716" as="targetPoint"/>
                    </mxGeometry>
                </mxCell>
                <mxCell id="T-B9nDz0MbjNUT2mxpqN-384" value="132" style="text;html=1;strokeColor=none;fillColor=none;align=center;verticalAlign=middle;whiteSpace=wrap;fontSize=33;fontStyle=1;strokeWidth=4;rounded=1;" parent="1" vertex="1">
                    <mxGeometry x="204.10456062291428" y="1792.7044025157231" width="84.53837597330366" height="42.76729559748428" as="geometry"/>
                </mxCell>
                <mxCell id="T-B9nDz0MbjNUT2mxpqN-385" value="168" style="text;html=1;strokeColor=none;fillColor=none;align=center;verticalAlign=middle;whiteSpace=wrap;fontSize=33;fontStyle=1;strokeWidth=4;rounded=1;" parent="1" vertex="1">
                    <mxGeometry x="229.4660734149054" y="1944.5283018867924" width="84.53837597330366" height="42.76729559748428" as="geometry"/>
                </mxCell>
                <mxCell id="T-B9nDz0MbjNUT2mxpqN-386" value="141" style="text;html=1;strokeColor=none;fillColor=none;align=center;verticalAlign=middle;whiteSpace=wrap;fontSize=33;fontStyle=1;strokeWidth=4;rounded=1;" parent="1" vertex="1">
                    <mxGeometry x="387.97552836484965" y="1745.6603773584905" width="84.53837597330366" height="42.76729559748428" as="geometry"/>
                </mxCell>
                <mxCell id="T-B9nDz0MbjNUT2mxpqN-387" value="140" style="text;html=1;strokeColor=none;fillColor=none;align=center;verticalAlign=middle;whiteSpace=wrap;fontSize=33;fontStyle=1;strokeWidth=4;rounded=1;" parent="1" vertex="1">
                    <mxGeometry x="546.4849833147941" y="1871.823899371069" width="84.53837597330366" height="42.76729559748428" as="geometry"/>
                </mxCell>
                <mxCell id="T-B9nDz0MbjNUT2mxpqN-388" value="139" style="text;html=1;strokeColor=none;fillColor=none;align=center;verticalAlign=middle;whiteSpace=wrap;fontSize=33;fontStyle=1;strokeWidth=4;rounded=1;" parent="1" vertex="1">
                    <mxGeometry x="516.8965517241379" y="2040.7547169811323" width="84.53837597330366" height="42.76729559748428" as="geometry"/>
                </mxCell>
                <mxCell id="T-B9nDz0MbjNUT2mxpqN-390" value="100" style="text;html=1;strokeColor=none;fillColor=none;align=center;verticalAlign=middle;whiteSpace=wrap;fontSize=33;fontStyle=1;strokeWidth=4;rounded=1;" parent="1" vertex="1">
                    <mxGeometry x="442.9254727474972" y="2111.320754716981" width="84.53837597330366" height="42.76729559748428" as="geometry"/>
                </mxCell>
                <mxCell id="T-B9nDz0MbjNUT2mxpqN-391" value="" style="endArrow=none;html=1;strokeWidth=4;fontSize=33;" parent="1" edge="1">
                    <mxGeometry x="-990" y="20" width="50" height="50" as="geometry">
                        <mxPoint x="516.8965517241379" y="2111.320754716981" as="sourcePoint"/>
                        <mxPoint x="647.9310344827586" y="2141.2578616352203" as="targetPoint"/>
                    </mxGeometry>
                </mxCell>
                <mxCell id="T-B9nDz0MbjNUT2mxpqN-392" value="&lt;span style=&quot;font-size: 33px;&quot;&gt;4190&lt;/span&gt;" style="text;html=1;strokeColor=none;fillColor=none;align=center;verticalAlign=middle;whiteSpace=wrap;fontSize=33;fontStyle=0;fontColor=#FF0000;strokeWidth=4;rounded=1;" parent="1" vertex="1">
                    <mxGeometry x="654.2714126807564" y="2124.1509433962265" width="84.53837597330366" height="42.76729559748428" as="geometry"/>
                </mxCell>
                <mxCell id="2" value="298" style="text;html=1;strokeColor=none;fillColor=none;align=center;verticalAlign=middle;whiteSpace=wrap;fontSize=33;fontStyle=1;strokeWidth=4;rounded=1;" parent="1" vertex="1">
                    <mxGeometry x="-990" y="2447.0440251572327" width="84.53837597330366" height="42.76729559748428" as="geometry"/>
                </mxCell>
                <mxCell id="3" value="" style="verticalLabelPosition=bottom;align=center;html=1;verticalAlign=top;pointerEvents=1;dashed=0;shape=mxgraph.pid2valves.valve;valveType=gate;defState=closed;strokeWidth=4;fillColor=none;fontSize=33;rotation=15;direction=south;strokeColor=#0000FF;rounded=1;" parent="1" vertex="1">
                    <mxGeometry x="16.006674082313566" y="1437.7358490566037" width="21.134593993325915" height="42.76729559748428" as="geometry"/>
                </mxCell>
                <mxCell id="5" value="" style="endArrow=none;html=1;strokeWidth=4;fontSize=33;exitX=0.75;exitY=0;exitDx=0;exitDy=0;" parent="1" source="T-B9nDz0MbjNUT2mxpqN-93" edge="1">
                    <mxGeometry x="-990" y="20" width="50" height="50" as="geometry">
                        <mxPoint x="144.92769744160182" y="1148.643186582809" as="sourcePoint"/>
                        <mxPoint x="318.2313681868743" y="832.8779874213836" as="targetPoint"/>
                        <Array as="points"/>
                    </mxGeometry>
                </mxCell>
                <mxCell id="6" value="" style="verticalLabelPosition=bottom;align=center;html=1;verticalAlign=top;pointerEvents=1;dashed=0;shape=mxgraph.pid2valves.valve;valveType=gate;defState=closed;strokeWidth=4;fillColor=none;fontSize=33;rotation=20;rounded=1;" parent="1" vertex="1">
                    <mxGeometry x="282.30255839822007" y="843.2704402515723" width="42.26918798665183" height="21.38364779874214" as="geometry"/>
                </mxCell>
                <mxCell id="7" value="&lt;b style=&quot;font-size: 33px;&quot;&gt;Taberneros&lt;/b&gt;" style="whiteSpace=wrap;html=1;strokeWidth=4;fillColor=#ffff88;fontSize=33;strokeColor=#36393d;rounded=1;" parent="1" vertex="1">
                    <mxGeometry x="736.7" y="826.16" width="213.3" height="55.6" as="geometry"/>
                </mxCell>
                <mxCell id="8" value="&lt;b style=&quot;font-size: 33px;&quot;&gt;Ramal del Médico&lt;/b&gt;" style="whiteSpace=wrap;html=1;strokeWidth=4;fillColor=#ffff88;fontSize=33;strokeColor=#36393d;rounded=1;" parent="1" vertex="1">
                    <mxGeometry x="884.6400000000001" y="1014.3399999999999" width="195.36" height="82.99" as="geometry"/>
                </mxCell>
                <mxCell id="12" value="&lt;b style=&quot;font-size: 27px;&quot;&gt;Boticario&lt;/b&gt;" style="whiteSpace=wrap;html=1;strokeWidth=4;fillColor=#ffff88;fontSize=27;strokeColor=#36393d;rounded=1;" parent="1" vertex="1">
                    <mxGeometry x="256.94104560622895" y="734.2138364779875" width="175.4171301446051" height="55.59748427672956" as="geometry"/>
                </mxCell>
                <mxCell id="13" value="&lt;b style=&quot;font-size: 33px;&quot;&gt;Planta&lt;/b&gt;" style="whiteSpace=wrap;html=1;strokeWidth=4;fillColor=#ffff88;fontSize=33;strokeColor=#36393d;rounded=1;" parent="1" vertex="1">
                    <mxGeometry x="-923.4260289210233" y="20" width="175.4171301446051" height="55.59748427672956" as="geometry"/>
                </mxCell>
                <mxCell id="15" value="&lt;b style=&quot;font-size: 27px;&quot;&gt;Barranco Hondo&lt;/b&gt;" style="whiteSpace=wrap;html=1;strokeWidth=4;fillColor=#ffff88;fontSize=27;strokeColor=#36393d;rounded=1;" parent="1" vertex="1">
                    <mxGeometry x="-243.94883203559516" y="721.3836477987421" width="141.60177975528364" height="81.25786163522012" as="geometry"/>
                </mxCell>
                <mxCell id="16" value="&lt;b style=&quot;font-size: 27px;&quot;&gt;Hípica&lt;/b&gt;" style="whiteSpace=wrap;html=1;strokeWidth=4;fillColor=#ffff88;fontSize=27;strokeColor=#36393d;rounded=1;" parent="1" vertex="1">
                    <mxGeometry x="-523.9822024471636" y="875.3459119496855" width="104.61624026696329" height="53.052830188679245" as="geometry"/>
                </mxCell>
                <mxCell id="18" value="" style="verticalLabelPosition=bottom;align=center;html=1;verticalAlign=top;pointerEvents=1;dashed=0;shape=mxgraph.pid2valves.valve;valveType=gate;defState=closed;strokeWidth=4;fillColor=none;fontSize=33;rotation=42;strokeColor=#0000FF;rounded=1;" parent="1" vertex="1">
                    <mxGeometry x="354.1601779755283" y="853.9622641509434" width="42.26918798665183" height="21.38364779874214" as="geometry"/>
                </mxCell>
                <mxCell id="19" value="" style="verticalLabelPosition=bottom;align=center;html=1;verticalAlign=top;pointerEvents=1;dashed=0;shape=mxgraph.pid2valves.valve;valveType=gate;defState=closed;strokeWidth=4;fillColor=none;fontSize=33;rotation=20;strokeColor=#0000FF;rounded=1;" parent="1" vertex="1">
                    <mxGeometry x="282.30255839822007" y="840.725786163522" width="42.26918798665183" height="21.38364779874214" as="geometry"/>
                </mxCell>
                <mxCell id="20" value="" style="verticalLabelPosition=bottom;align=center;html=1;verticalAlign=top;pointerEvents=1;dashed=0;shape=mxgraph.pid2valves.valve;valveType=gate;defState=closed;strokeWidth=4;fillColor=none;fontSize=33;rotation=7;strokeColor=#0000FF;rounded=1;" parent="1" vertex="1">
                    <mxGeometry x="87.86429365962181" y="828.3018867924528" width="42.26918798665183" height="21.38364779874214" as="geometry"/>
                </mxCell>
                <mxCell id="21" value="&lt;b style=&quot;font-size: 27px;&quot;&gt;Colegio&lt;/b&gt;" style="whiteSpace=wrap;html=1;strokeWidth=4;fillColor=#ffff88;fontSize=27;strokeColor=#36393d;rounded=1;" parent="1" vertex="1">
                    <mxGeometry x="-398.2313681868743" y="1391.953459119497" width="130.50611790878753" height="48.77610062893081" as="geometry"/>
                </mxCell>
                <mxCell id="22" value="&lt;b style=&quot;font-size: 27px;&quot;&gt;Cementerio la Cañada&lt;/b&gt;" style="whiteSpace=wrap;html=1;strokeWidth=4;fillColor=#ffff88;fontSize=27;strokeColor=#36393d;rounded=1;" parent="1" vertex="1">
                    <mxGeometry x="-886.1700000000001" y="1692.2" width="196.17" height="77.8" as="geometry"/>
                </mxCell>
                <mxCell id="26" value="&lt;b style=&quot;font-size: 27px;&quot;&gt;Aeropuerto&lt;/b&gt;" style="whiteSpace=wrap;html=1;strokeWidth=4;fillColor=#ffff88;fontSize=27;strokeColor=#36393d;rounded=1;" parent="1" vertex="1">
                    <mxGeometry x="885.6952169076751" y="2372.201257861635" width="179.6440489432703" height="51.32075471698113" as="geometry"/>
                </mxCell>
                <mxCell id="28" value="&lt;b style=&quot;font-size: 27px;&quot;&gt;El Alquian&lt;/b&gt;" style="whiteSpace=wrap;html=1;strokeWidth=4;fillColor=#ffff88;fontSize=27;strokeColor=#36393d;rounded=1;" parent="1" vertex="1">
                    <mxGeometry x="1994.2046718576194" y="2323.0188679245284" width="179.6440489432703" height="51.32075471698113" as="geometry"/>
                </mxCell>
                <mxCell id="29" value="&lt;b style=&quot;font-size: 33px;&quot;&gt;Juanorros&lt;/b&gt;" style="whiteSpace=wrap;html=1;strokeWidth=4;fillColor=#ffff88;fontSize=33;strokeColor=#36393d;rounded=1;" parent="1" vertex="1">
                    <mxGeometry x="2558.4983314794213" y="2329.433962264151" width="179.6440489432703" height="51.32075471698113" as="geometry"/>
                </mxCell>
                <mxCell id="30" value="&lt;b style=&quot;font-size: 27px;&quot;&gt;Cementerio el Alquian&lt;/b&gt;" style="whiteSpace=wrap;html=1;strokeWidth=4;fillColor=#ffff88;fontSize=27;strokeColor=#36393d;rounded=1;" parent="1" vertex="1">
                    <mxGeometry x="2355.606229143493" y="1822.6415094339623" width="211.34593993325916" height="76.98113207547169" as="geometry"/>
                </mxCell>
                <mxCell id="31" value="&lt;b style=&quot;font-size: 33px;&quot;&gt;Balsa Ataud&lt;/b&gt;" style="whiteSpace=wrap;html=1;strokeWidth=4;fillColor=#ffff88;fontSize=33;strokeColor=#36393d;rounded=1;" parent="1" vertex="1">
                    <mxGeometry x="1666.6184649610677" y="1391.953459119497" width="114.12680756395994" height="82.13459119496855" as="geometry"/>
                </mxCell>
                <mxCell id="32" value="&lt;b style=&quot;font-size: 27px;&quot;&gt;Loma Cabrera&lt;/b&gt;" style="whiteSpace=wrap;html=1;strokeWidth=4;fillColor=#ffff88;fontSize=27;strokeColor=#36393d;rounded=1;" parent="1" vertex="1">
                    <mxGeometry x="472.51390433815345" y="1608.8050314465409" width="133.14794215795328" height="74.84276729559748" as="geometry"/>
                </mxCell>
                <mxCell id="37" value="&lt;b style=&quot;font-size: 27px;&quot;&gt;Charco&lt;/b&gt;" style="whiteSpace=wrap;html=1;strokeWidth=4;fillColor=#ffff88;fontSize=27;strokeColor=#36393d;rounded=1;" parent="1" vertex="1">
                    <mxGeometry x="-562.5528364849833" y="2496.632704402516" width="130.50611790878753" height="48.77610062893081" as="geometry"/>
                </mxCell>
                <mxCell id="38" value="&lt;b style=&quot;font-size: 27px;&quot;&gt;Universidad Laboral&lt;/b&gt;" style="whiteSpace=wrap;html=1;strokeWidth=4;fillColor=#ffff88;fontSize=27;strokeColor=#36393d;rounded=1;" parent="1" vertex="1">
                    <mxGeometry x="-55.85351501668515" y="2166.916603773585" width="175.14238042269187" height="89.81132075471697" as="geometry"/>
                </mxCell>
                <mxCell id="39" value="&lt;b style=&quot;font-size: 27px;&quot;&gt;Vivero&lt;/b&gt;" style="whiteSpace=wrap;html=1;strokeWidth=4;fillColor=#ffff88;fontSize=27;strokeColor=#36393d;rounded=1;" parent="1" vertex="1">
                    <mxGeometry x="512.8051390433816" y="2188.301886792453" width="122.30589543937707" height="51.32075471698113" as="geometry"/>
                </mxCell>
                <mxCell id="40" value="&lt;b style=&quot;font-size: 27px;&quot;&gt;Caparros&lt;/b&gt;" style="whiteSpace=wrap;html=1;strokeWidth=4;fillColor=#ffff88;fontSize=27;strokeColor=#36393d;rounded=1;" parent="1" vertex="1">
                    <mxGeometry x="1313.6684760845383" y="2372.201257861635" width="179.6440489432703" height="51.32075471698113" as="geometry"/>
                </mxCell>
                <mxCell id="44" value="SECTOR - VB" style="text;html=1;strokeColor=none;fillColor=none;align=center;verticalAlign=middle;whiteSpace=wrap;fontSize=82;fontStyle=1;strokeWidth=4;rounded=1;" parent="1" vertex="1">
                    <mxGeometry x="1600" y="763.31" width="650" height="20" as="geometry"/>
                </mxCell>
                <mxCell id="45" value="&lt;font style=&quot;font-size: 46px&quot;&gt;Actualizado: 04/05/2021&lt;/font&gt;" style="text;html=1;strokeColor=none;fillColor=none;align=center;verticalAlign=middle;whiteSpace=wrap;fontSize=80;fontStyle=1;strokeWidth=4;rounded=1;" parent="1" vertex="1">
                    <mxGeometry x="1602" y="795.8399999999999" width="660" height="100.89" as="geometry"/>
                </mxCell>
                <mxCell id="46" value="" style="edgeStyle=orthogonalEdgeStyle;orthogonalLoop=1;jettySize=auto;html=1;strokeWidth=4;fontSize=49;" parent="1" source="44" target="45" edge="1">
                    <mxGeometry x="-990" y="20" as="geometry"/>
                </mxCell>
                <mxCell id="48" value="" style="verticalLabelPosition=bottom;align=center;html=1;verticalAlign=top;pointerEvents=1;dashed=0;shape=mxgraph.pid2valves.valve;valveType=gate;defState=closed;strokeWidth=4;fillColor=none;fontSize=33;rotation=30;strokeColor=#0000FF;rounded=1;" parent="1" vertex="1">
                    <mxGeometry x="-842.0561179087875" y="2317.933459119497" width="42.26918798665183" height="21.38364779874214" as="geometry"/>
                </mxCell>
                <mxCell id="53" value="" style="verticalLabelPosition=bottom;align=center;outlineConnect=0;dashed=0;html=1;verticalAlign=top;shape=mxgraph.pid.flow_sensors.rotameter;strokeWidth=6;fillColor=none;fontSize=33;rotation=-90;strokeColor=#009900;rounded=1;" vertex="1" parent="1">
                    <mxGeometry x="-360.18909899888774" y="2393.178616352201" width="29.588431590656285" height="17.919496855345912" as="geometry"/>
                </mxCell>
            </root>
        </mxGraphModel>
    </diagram>
</mxfile>